<svg id="Layer_1" data-name="Layer 1" xmlns="http://www.w3.org/2000/svg" xmlns:xlink="http://www.w3.org/1999/xlink" viewBox="0 0 418.39 487.52"><defs><style>.cls-1{fill:#324b69;}.cls-2{fill:#24384f;}.cls-3{fill:#1b2b3e;}.cls-4{fill:#eec29c;}.cls-5{fill:url(#linear-gradient);}.cls-6{fill:#daa77c;}.cls-7{fill:url(#linear-gradient-2);}.cls-8{fill:url(#linear-gradient-3);}.cls-9{fill:url(#linear-gradient-4);}.cls-10{fill:url(#linear-gradient-5);}.cls-11{fill:url(#linear-gradient-6);}.cls-12{fill:url(#linear-gradient-7);}.cls-13{fill:url(#linear-gradient-8);}.cls-14{fill:url(#linear-gradient-9);}.cls-15{fill:url(#linear-gradient-10);}.cls-16{fill:url(#linear-gradient-11);}.cls-17{fill:url(#linear-gradient-12);}.cls-18{fill:url(#linear-gradient-13);}.cls-19{fill:#b9885e;}.cls-20{fill:url(#linear-gradient-14);}.cls-21{fill:url(#linear-gradient-15);}.cls-22{fill:url(#linear-gradient-16);}.cls-23{fill:#fbd7b7;}.cls-24{fill:url(#linear-gradient-17);}.cls-25{fill:url(#linear-gradient-18);}.cls-26{fill:url(#linear-gradient-19);}.cls-27{fill:url(#linear-gradient-20);}.cls-28{fill:url(#linear-gradient-21);}.cls-29{fill:url(#linear-gradient-22);}.cls-30{fill:url(#linear-gradient-23);}.cls-31{fill:url(#linear-gradient-24);}.cls-32{fill:#e8e8e8;}.cls-33{fill:#c4c4c4;}.cls-34{fill:#282828;}.cls-35{fill:#fff;}.cls-36{fill:#c9796f;}.cls-37{fill:#a96054;}.cls-38{fill:#84463c;}.cls-39{fill:#ee9a8c;}.cls-40{fill:url(#linear-gradient-25);}.cls-41{fill:url(#linear-gradient-26);}.cls-42{fill:#3b3b3b;}.cls-43{fill:#5d5d5d;}</style><linearGradient id="linear-gradient" x1="172.05" y1="476.61" x2="169.41" y2="533.34" gradientTransform="matrix(0.97, 0.24, 0.24, -0.97, -97.79, 573.4)" gradientUnits="userSpaceOnUse"><stop offset="0" stop-color="#daa77c" stop-opacity="0"/><stop offset="1" stop-color="#daa77c"/></linearGradient><linearGradient id="linear-gradient-2" x1="125.41" y1="446.48" x2="123.95" y2="496.06" xlink:href="#linear-gradient"/><linearGradient id="linear-gradient-3" x1="135.35" y1="499.46" x2="134.34" y2="452.24" xlink:href="#linear-gradient"/><linearGradient id="linear-gradient-4" x1="145.39" y1="490.36" x2="165.8" y2="447.85" xlink:href="#linear-gradient"/><linearGradient id="linear-gradient-5" x1="210.15" y1="421.21" x2="138.4" y2="463.65" xlink:href="#linear-gradient"/><linearGradient id="linear-gradient-6" x1="172" y1="503.06" x2="195.57" y2="461.85" xlink:href="#linear-gradient"/><linearGradient id="linear-gradient-7" x1="179.62" y1="549.84" x2="142.38" y2="409.45" xlink:href="#linear-gradient"/><linearGradient id="linear-gradient-8" x1="158.4" y1="452.52" x2="204.32" y2="364.09" xlink:href="#linear-gradient"/><linearGradient id="linear-gradient-9" x1="194.03" y1="461.85" x2="183.17" y2="401.43" xlink:href="#linear-gradient"/><linearGradient id="linear-gradient-10" x1="175.68" y1="427.61" x2="177.89" y2="386.79" gradientTransform="matrix(0.97, 0.24, 0.24, -0.97, -97.79, 573.4)" gradientUnits="userSpaceOnUse"><stop offset="0" stop-color="#b9885e" stop-opacity="0"/><stop offset="1" stop-color="#b9885e"/></linearGradient><linearGradient id="linear-gradient-11" x1="216.69" y1="394.1" x2="125.82" y2="398.88" xlink:href="#linear-gradient-10"/><linearGradient id="linear-gradient-12" x1="189.28" y1="355.49" x2="133.82" y2="403.54" xlink:href="#linear-gradient-10"/><linearGradient id="linear-gradient-13" x1="129.55" y1="478.65" x2="123.52" y2="501.17" xlink:href="#linear-gradient-10"/><linearGradient id="linear-gradient-14" x1="103.05" y1="474.58" x2="112.36" y2="507.65" xlink:href="#linear-gradient-10"/><linearGradient id="linear-gradient-15" x1="141.96" y1="490.9" x2="161.12" y2="439.28" xlink:href="#linear-gradient-10"/><linearGradient id="linear-gradient-16" x1="181.79" y1="458.62" x2="214.37" y2="465.57" xlink:href="#linear-gradient-10"/><linearGradient id="linear-gradient-17" x1="134.67" y1="545.71" x2="164.95" y2="447.86" gradientTransform="matrix(0.97, 0.24, 0.24, -0.97, -97.79, 573.4)" gradientUnits="userSpaceOnUse"><stop offset="0" stop-color="#fbd7b7" stop-opacity="0"/><stop offset="1" stop-color="#fbd7b7"/></linearGradient><linearGradient id="linear-gradient-18" x1="107.25" y1="551.25" x2="171.53" y2="486.97" xlink:href="#linear-gradient-17"/><linearGradient id="linear-gradient-19" x1="92.43" y1="603.01" x2="177.48" y2="475.78" xlink:href="#linear-gradient-17"/><linearGradient id="linear-gradient-20" x1="194.13" y1="417.01" x2="194.13" y2="558.9" xlink:href="#linear-gradient-17"/><linearGradient id="linear-gradient-21" x1="89.55" y1="431.17" x2="148" y2="493.61" xlink:href="#linear-gradient-17"/><linearGradient id="linear-gradient-22" x1="153.13" y1="401.78" x2="124.89" y2="435.25" xlink:href="#linear-gradient-17"/><linearGradient id="linear-gradient-23" x1="150.88" y1="460.55" x2="240.07" y2="371.37" xlink:href="#linear-gradient-17"/><linearGradient id="linear-gradient-24" x1="211.5" y1="427.09" x2="169.52" y2="447.21" xlink:href="#linear-gradient-17"/><linearGradient id="linear-gradient-25" x1="170.49" y1="524.11" x2="203.5" y2="526.27" gradientTransform="matrix(0.97, 0.24, 0.24, -0.97, -97.79, 573.4)" gradientUnits="userSpaceOnUse"><stop offset="0" stop-color="#282828"/><stop offset="1" stop-color="#eec29c"/></linearGradient><linearGradient id="linear-gradient-26" x1="118.23" y1="503.26" x2="100.5" y2="482.65" gradientTransform="matrix(0.97, 0.24, 0.24, -0.97, -97.79, 573.4)" gradientUnits="userSpaceOnUse"><stop offset="0" stop-color="#282828"/><stop offset="1" stop-color="#daa77c"/></linearGradient></defs><g id="layer1"><path class="cls-1" d="M264.53,239.38l-1.34-.29q-8.83-1.84-52.65-3.37-5.34,7-23.33,8.79-14.27-.9-14.59-10.33l-25.35-1q-21.33,4.05-23.11,6.54-3.7,2.26-12.27,19.5l-6,6a56.78,56.78,0,0,0-3.44,7.26q-18.73,4.18-46,20.42Q11.67,320.57,2.16,334.42-12.65,352.3-22.09,409l414.55,39.66q1.13-56.49-4.42-74.21-5.3-25.89-16.21-45.73-1.63-4.29-17.37-14.67l-62.8-36.56q-8.61-7.1-12.49-12.88-2.88-4.17-10.11-21.58Q266.62,239.25,264.53,239.38Z" transform="translate(25.07 30.27)"/><path class="cls-2" d="M261.07,238.74q-6.26-.92-19.14-1.63l-1.1-.07,14.5,25.55q6.54-8.72,8-13.13a13.17,13.17,0,0,0,.81-3.44v-1.63l-.3-1.57-.65-1.5-1-1.43-1.15-1.15Z" transform="translate(25.07 30.27)"/><path class="cls-2" d="M295.11,280a17.16,17.16,0,0,1-1,6.9q-2.4,8.4-24.9,29.63-11.57,7.06-21.11,7a66.7,66.7,0,0,1-9.91-.63q-1.92,0-23.26-4.17a30.44,30.44,0,0,0-7.34-.41l-6.08,12.15q-28.53-.72-38.82,8.35-11.13,8.26-16.55,29.38,5.63-12,14.57-17.94,11.61-6.92,39-10.83l18-14.26q5.31,1.57,10.14,2.75,17.76,4.36,28.72,3.55,14-.41,28.69-11.23c1.32-.72,4.23-3.51,8.7-8.36a41.48,41.48,0,0,0,4.22-6.1,24.23,24.23,0,0,0,3.42-12.26q.51-4.42-2.66-11.35L295.12,280Z" transform="translate(25.07 30.27)"/><path class="cls-2" d="M273.2,314.79l1.16,2.73q8,19.1,10.57,27.72,1.53,4.36,6.87,25.9l2.43,8.11q.88,2.6,1.89,5.05,6.93,15.42,7.28,16.86a62.39,62.39,0,0,1,2.45,8.11,91.8,91.8,0,0,1,1.87,20.13q.07,9.32-1.19,27.85,5.27-29.55,2.86-44.38l-.57-3.71q-.68-3.71-1.6-7.46L299.42,374q-2.66-10.81-3-13.27l-2.15-13.95-3.24-28.62c-.12-1.39-.55-4-1.3-7.76q-1.32-7-5.1-8.73l-5,7.28-6.44,5.88" transform="translate(25.07 30.27)"/><path class="cls-2" d="M146.65,233.25q-18.83,3.47-21.64,6.1-3.48.45-13.12,19.83l-5.68,5.58a45.24,45.24,0,0,0-3.72,7.65,166.27,166.27,0,0,0-46,20.42Q15.19,318.39,6,330.56q-15.28,12.87-25.33,63.55c.91-.93,1.78-1.78,2.63-2.56q8.64-8,10.86-9.42l34.15-23.62q10.41-7.89,12.1-9.76,7-5.53,27.43-31.75a14.15,14.15,0,0,1,4.08-3.4,2.59,2.59,0,0,1,3.11.87q6.78,12.82,8.33,13.2h0a26.53,26.53,0,0,0,8.42,5.09c-.3.39,1.76,1.12,6.2,2.21q13,3.21,53.47,10.49l14.21-12.38a27.4,27.4,0,0,0-5.7-3.33,336,336,0,0,1-33.51-13.36l3.79-6.25-4.72-1q-3.94-13.8-5.55-21-4.68-22-1.15-28.47a1.58,1.58,0,0,1,1.74-.8c1.17.29,2.61,1.92,4.3,4.88q4.58,7.75,14.73,33.6l1.82,4.59,5.27-68.68Z" transform="translate(25.07 30.27)"/><path class="cls-3" d="M114.92,253.25c-1,1.81-2,3.78-3,5.93l-5.68,5.58a45.24,45.24,0,0,0-3.72,7.65l-.07,0c-.64.14-1.29.29-1.94.46q4.9,16.47,9.71,43.14l15.38-7q-9.81-34.12-10.62-52.37c0-1.17,0-2.32,0-3.43Z" transform="translate(25.07 30.27)"/><path class="cls-3" d="M162.56,233.77l-15.29-.63-.61.12a153.46,153.46,0,0,0-16,3.6,42.2,42.2,0,0,0-4.11,1.38,13,13,0,0,1-.14,1.43q-3.06,15.56-2.68,17.91a21.24,21.24,0,0,0,2.16,10.61,26.45,26.45,0,0,0,7.53,8.42,99.63,99.63,0,0,0,17.5,10l3.23,1.53Z" transform="translate(25.07 30.27)"/><path class="cls-3" d="M83.51,316.6l.79.63A25.76,25.76,0,0,0,95.2,323a33,33,0,0,0,5.68.78q12,.42,13.14.67c1.29.12,2.56.3,3.81.53a29.36,29.36,0,0,1,4.25,1.11l1.87.74a30.61,30.61,0,0,1,3.5,1.84q1.87,1,9.14,6.48a33.06,33.06,0,0,0,2.84,1.78,16.38,16.38,0,0,0,5.23,1.81q5.63.84,14.08-1.42l7.95-3.91A103.24,103.24,0,0,0,156,327.87q-2.47-1.08-5.38-2.12L139,321.85c-2.1-.75-3.29-1.2-3.58-1.33a46.22,46.22,0,0,1-8.31-4.35l3.94-6.73c-4.91,0-8.15.28-9.74.9a9.5,9.5,0,0,0-2.28,1.05l-4.72,3.52a10.89,10.89,0,0,1-3.71,1.43,24,24,0,0,1-5.22.24q-.8.06-10.2-.93c-.52-.08-1.72-.13-3.6-.18a28.78,28.78,0,0,0-8.08,1.13" transform="translate(25.07 30.27)"/><path class="cls-3" d="M237.45,254.85l.71.91a43.82,43.82,0,0,0,4.37,5,14.5,14.5,0,0,0,3.23,2.36,9,9,0,0,0,3.72,1,8.33,8.33,0,0,0,2.55-.27,9.66,9.66,0,0,0,1.69-.63,10.59,10.59,0,0,0,2.45-1.69,13,13,0,0,0,1.54-1.65,25.59,25.59,0,0,0,3-5.07,42.8,42.8,0,0,0,2.82-8.32q.81-3.57,0-4.69c-.47-.58-1.48-.31-3,.81-.37.25-1.08.83-2.12,1.74q-8.16,7.64-8.34,7.6a22,22,0,0,1-3.88,2.66q-3.78,2.05-8.73.24" transform="translate(25.07 30.27)"/><path class="cls-2" d="M128,408.42l13.27,3.22,13.27,3.23-3.33,1.86-24.07-6.25c.28-.69.57-1.37.86-2.06" transform="translate(25.07 30.27)"/><path class="cls-2" d="M127,410.16l-1.21,6.28,23.85,7.16L182,341.43l-32.25,78.32-21.44-5.59-1.33-4" transform="translate(25.07 30.27)"/></g><g id="layer2"><path class="cls-4" d="M217.5,28.53l-1.2-.25q-25.2-4.87-90.36,10.32Q110.18,44.84,101,83q3.31,23.79,4.46,40.67-7.77-2.24-9-1.07-.87.66,1.75,5.22a36.6,36.6,0,0,0,.8,9l9.63,20.35a64.08,64.08,0,0,1,2.08,9.75,11.66,11.66,0,0,0-1,6.22q.21,2.33,5.25,7.53A32.22,32.22,0,0,0,118.16,194q3.59,7.5,17.21,26,3.28,28.17,1.31,34.5-1.56,7.24-10.29,8a24.16,24.16,0,0,0,.26,13.36q2.29,7.94,13.88,28.66A87.93,87.93,0,0,0,164,327a18.62,18.62,0,0,1,3.37,5.1q.26-1.75,32.51-18.6,4.39-5.59,5.44-5.82a23.49,23.49,0,0,0,13.3-6.31q8.28-7.11,39.84-42.41-14.1-12-19.59-25.18-4.66-11.38-4-30.92l.12-6.54q4.59-12.19,5-16.34a42.39,42.39,0,0,0,.74-10.79q7.31-3.84,7.54-6.44l2.21-14.64,9.06-25.07a25.65,25.65,0,0,0,.78-10.69q-.92-10.89-14.69-2.43l1.12-33.87q-1.07-10-6-25.23a47.47,47.47,0,0,0-7.11-13.22Q216.38,29.32,217.5,28.53Z" transform="translate(25.07 30.27)"/><path class="cls-5" d="M190.11,141.09l-.83-1.06q-4.71-5.88-6-8.95a6.25,6.25,0,0,1,.28-6.11,22.75,22.75,0,0,1,1.51-2.32l8-10.92a32.5,32.5,0,0,1,4.73-5q3.78-3.39,10.91-3.45a30.82,30.82,0,0,0-20.24.15A27.29,27.29,0,0,0,179.8,108a20.59,20.59,0,0,0-3.46,3.55,18.92,18.92,0,0,0-1.76,2.73,16.32,16.32,0,0,0-1.2,2.92l-.36,1.51a12.42,12.42,0,0,0-.2,3,12.15,12.15,0,0,0,2,5.92q2.24,4.35,15.26,13.46" transform="translate(25.07 30.27)"/><path class="cls-6" d="M186.33,123.3l-9.18.87q4.36-7.32,7.57-9.47a18.36,18.36,0,0,1,4.52-2.52,24.19,24.19,0,0,1,4-1.16,26.58,26.58,0,0,1,2.82-.4,25.17,25.17,0,0,1,2.88-.06l1.43.1a19.54,19.54,0,0,1,5.14,1.21,27.86,27.86,0,0,1,5.19,2.73q1.46.9,6.35,4.63a21.82,21.82,0,0,0,2.63,1.67,12.87,12.87,0,0,0,6,1.53,43.22,43.22,0,0,1-6.75-.11,16.13,16.13,0,0,1-4.45-1.14,14.89,14.89,0,0,1-3.52-2.15q-1-.73-5.58-4.94a20.75,20.75,0,0,0-1.82-1.41,8.14,8.14,0,0,0-4.66-1.63q-8.38.32-12.48,12.25" transform="translate(25.07 30.27)"/><path class="cls-6" d="M183.59,129.26l.5.13a71.33,71.33,0,0,0,9.34,2,23.58,23.58,0,0,0,6.61,0,19.29,19.29,0,0,0,2.58-.6,27.87,27.87,0,0,0,3.76-1.49,72.58,72.58,0,0,0,8.51-5.07q-7.56,2.92-11.51,3.06a25.92,25.92,0,0,1-5-.19q-2.52-.29-7.12-1.31l-7.68,3.56" transform="translate(25.07 30.27)"/><path class="cls-6" d="M189.62,121.94l1.29.21q3.89.64,7.57,1c2,.15,3.19.21,3.56.18.77,0,1.51,0,2.24-.08a20.27,20.27,0,0,0,2.11-.26,25,25,0,0,0,3-.68,55.44,55.44,0,0,0,6.39-2.39l-13.64-.9c.4-.24.45-.35.14-.34s-4.51,1-12.64,3.25" transform="translate(25.07 30.27)"/><path class="cls-7" d="M143.64,156.82l.7-1.92q1.42-4.14,6.16-16.2a39.42,39.42,0,0,0,1.25-4.1,14.69,14.69,0,0,0,.46-4.93l-.2-1.06a6.54,6.54,0,0,0-.84-1.86,9.78,9.78,0,0,0-2.15-2.27A77.35,77.35,0,0,0,142.2,120q-.27,0-6.79-5.77a13.19,13.19,0,0,0-3.33-2c-2.14-1.08-6.13-.94-11.94.44q15.27-3.63,25-2.23,8.64,1.44,11.35,7.77,2,3.83,2.87,11.76.84,8.39-.86,13.17c-.44,1.69-2,3.81-4.61,6.36a76.25,76.25,0,0,1-10.26,7.32" transform="translate(25.07 30.27)"/><path class="cls-6" d="M112,133.78l13.83-5.1q7.83-9.09,12.28-10a12.91,12.91,0,0,1,6-.11,46,46,0,0,1,8.11,2.59,26.22,26.22,0,0,0-4.88-7.09,13.38,13.38,0,0,0-2-1.63l-1.19-.71a16.47,16.47,0,0,0-2.81-1.17,26,26,0,0,0-4.61-.94,33.15,33.15,0,0,0-3.63-.19,30.69,30.69,0,0,0-5.58.52,24.92,24.92,0,0,0-3.52.94,15,15,0,0,0-5.81,3.52L117,115.68a17,17,0,0,0-1.77,3,26.35,26.35,0,0,0-1.75,5.23,83.8,83.8,0,0,0-1.54,9.89" transform="translate(25.07 30.27)"/><path class="cls-6" d="M147.51,128.28l-1.22.33a72,72,0,0,1-12.91,2.6c-.73.06-1.44.09-2.14.09-.37,0-1.39,0-3.08-.11s-4-.43-6.83-.93l12.89-5.36,13.29,3.38" transform="translate(25.07 30.27)"/><path class="cls-6" d="M121.93,135.5l.58.16a62,62,0,0,0,8.82,1.88,22.59,22.59,0,0,0,5.81,0,18.88,18.88,0,0,0,2.46-.52,26.2,26.2,0,0,0,3.64-1.3,73.12,73.12,0,0,0,8.36-4.46l-9.36.83q-4.78,1.83-7.24,2.61a31.83,31.83,0,0,1-5.44,1.3,18.9,18.9,0,0,1-3.72.09,33.73,33.73,0,0,1-3.91-.57" transform="translate(25.07 30.27)"/><path class="cls-8" d="M133,186.37l-.14-.72a13.64,13.64,0,0,1-.3-4.44,9.08,9.08,0,0,1,1.06-3.25,18.38,18.38,0,0,1,2.69-3.61c.57-.62,1.17-1.25,1.8-1.87q6.28-6,6.32-6.11a20.09,20.09,0,0,0,2.16-2.68,12.79,12.79,0,0,0,1.76-4.06,17.57,17.57,0,0,1-.32-3.12,6.44,6.44,0,0,1,.37-2.06,6.65,6.65,0,0,1,1.21-2c.34-.42,1.13-1.25,2.38-2.47l.42-.52.06-.18c-.36-.36-1.56,0-3.61,1a16.68,16.68,0,0,0-4.41,3.42,30,30,0,0,0-2.69,3.57l-3.85,6.21-1.38,2.08-3.47,4.95q-.63,1-1.17,1.89l-.5.93a9.41,9.41,0,0,0-1.18,5.37,20.8,20.8,0,0,0,2.79,7.65" transform="translate(25.07 30.27)"/><path class="cls-9" d="M179.57,161.75l-1,.51a33.82,33.82,0,0,1-5.94,2.5,10.67,10.67,0,0,1-3.8.41,8.32,8.32,0,0,1-3.66-1.31,12.93,12.93,0,0,1-1.59-1.22l-.74-.72a16.45,16.45,0,0,1-1.35-1.63,18.44,18.44,0,0,1-3.42-10.09,28.15,28.15,0,0,1,.15-4.3c0-.42.18-1.42.48-3l1.24-5.44c.08-.52,0-.72-.16-.61-.95.88-2.46,3.34-4.55,7.39a34.21,34.21,0,0,0-2.68,6.87,11,11,0,0,0-.28,4.36,7.92,7.92,0,0,0,.49,1.78l.37.82a12.26,12.26,0,0,0,1,1.54q5.94,7,12.36,7.88a11.37,11.37,0,0,0,5.91-1.26,45.78,45.78,0,0,0,7.17-4.49" transform="translate(25.07 30.27)"/><path class="cls-10" d="M131.88,184.41l.17-.46a6.6,6.6,0,0,1,3.12-4.22l1.66-.56a62.93,62.93,0,0,0,7.32-1.57q9.49-3.58,10.81-3.88a23.62,23.62,0,0,1,4.41-.81c.35-.09,2.88-.13,7.61-.12a30.17,30.17,0,0,0,3.41-.27q.47.07,8.58-1.87a32.15,32.15,0,0,1,3.8-.59,19.11,19.11,0,0,1,7.3.76c.31.07,1.17.35,2.59.84q7,2.85,7.37,2.88c.45.15,1,.31,1.7.48l3.74.76,1.38.39a19.46,19.46,0,0,1,3.78,2q-5.94-9.72-10.9-13.59-4.57-3.63-11.86-3.08a26.82,26.82,0,0,0-5.85,1.26l-9.64,3.73a13.37,13.37,0,0,1-2.89.71A7.22,7.22,0,0,1,167,167l-1.51-.52a30.23,30.23,0,0,0-4.05-1.79,11.94,11.94,0,0,0-3.25-.5,28.21,28.21,0,0,0-11.06,2.16q-5.78,2.82-12,5.16a10.24,10.24,0,0,0-3.55,2.37q-2.58,3.24.3,10.51" transform="translate(25.07 30.27)"/><path class="cls-11" d="M188.69,158l.16-.4a5.9,5.9,0,0,0,.44-3.77,9.39,9.39,0,0,0-1.07-2.66,43.92,43.92,0,0,1-2.86-4.83c-.33-.67-.15-.93.52-.79q5.72,2.75,13.94,9.54a45.33,45.33,0,0,1,9.35,9.77,17.78,17.78,0,0,1,2.3,5.06A15.43,15.43,0,0,1,212,174q.31,4.11-3.28,14.83a63.17,63.17,0,0,0,1.08-7.46,25.19,25.19,0,0,0-.05-4.44,18.17,18.17,0,0,0-3.37-8.75,36.6,36.6,0,0,0-5.88-6.48,36.18,36.18,0,0,0-5.85-4.28,6.57,6.57,0,0,0-3.67-1.1,3.32,3.32,0,0,0-2.29,1.69" transform="translate(25.07 30.27)"/><path class="cls-12" d="M241.22,104.28l-1.13,2a60.77,60.77,0,0,0-8,21.86,73.36,73.36,0,0,0-.74,10.31q1.26,31.44-.14,38.55a61.65,61.65,0,0,1-1.59,8.33q-.22,2.24-4.52,11.24Q218.8,209,202.66,222q-14.43,11.55-26,12.72a25.57,25.57,0,0,1-9.19-.5,27.19,27.19,0,0,1-11.84-6.56q-11.56-10-25.68-33.3a61,61,0,0,1-5.77-14.25l-8-36.36-2.93-10.48-.89-3.18h0l-7.16-25.63-1.4,1.42q1.27,11.22,1.6,17.79c-.88-.24-1.69-.46-2.45-.64q-6.63-1.64-6.63-.13-.57.73,1.83,4.92a37.6,37.6,0,0,0,.8,9,27,27,0,0,0,2.05,5.57q7.77,13.88,7.65,15.24a54.11,54.11,0,0,1,2,9.29,11.4,11.4,0,0,0-1,6.22q.77,3.15,5.25,7.53a31.47,31.47,0,0,0,2.54,11.61q2.63,6.9,18,27.75,1.06,9.15,1.58,15.91a113.67,113.67,0,0,0,19.85,6.91q4.37,1.06,8.76,1.76a75.3,75.3,0,0,0,14.73.86l6.82-.72a49.52,49.52,0,0,0,25.59-12.87,84.36,84.36,0,0,0,20.14-31.11q5-11.46,6.88-29.39Q239.9,131.34,241.22,104.28Z" transform="translate(25.07 30.27)"/><path class="cls-6" d="M181.2,179.5l.28.1a21,21,0,0,0,4.73,1.3,12.75,12.75,0,0,0,3.64,0A16.36,16.36,0,0,0,193,180q1.16-.39,6.9-2.87a18.33,18.33,0,0,1,2.05-.69,7,7,0,0,1,1.73-.28l.71.08.21.06.2.09.51.4.38.56.25.71a7.31,7.31,0,0,1,.18,1.67c-.2,2.88-.61,4.52-1.2,4.91a.45.45,0,0,1-.35-.35l-.76-2.29a6.31,6.31,0,0,0-.44-1,2.55,2.55,0,0,0-.56-.71c-.32-.18-.47-.26-.45-.22l-.45,0a3.22,3.22,0,0,0-1,.32l-3.46,2a14.8,14.8,0,0,1-1.66.77,8.28,8.28,0,0,1-3.39.56,15,15,0,0,1-4.48-1,59,59,0,0,1-6.72-3.18" transform="translate(25.07 30.27)"/><path class="cls-6" d="M149.92,186.68l22.67-4.28a4.57,4.57,0,0,1-1.21,1.91,1.94,1.94,0,0,1-2,.13,8.1,8.1,0,0,1-1.67-.93l-5.62-4.28c-.72-.52-1.44-1-2.18-1.45a18.27,18.27,0,0,0-2.22-1.17,10.43,10.43,0,0,0-2.79-.8,13.15,13.15,0,0,0-4,.1c-.69.1-2.54.51-5.56,1.25a16.57,16.57,0,0,1-1.78.26c-.6.05-1.18.08-1.74.08h-2.28c-.45,0-.86,0-1.21.07a1.51,1.51,0,0,0-1.37.77c-.13,0-.1.52.08,1.4a11.75,11.75,0,0,0,3.58,5,8.48,8.48,0,0,0,3.89,1.8,21.49,21.49,0,0,0,5.36.17" transform="translate(25.07 30.27)"/><path class="cls-13" d="M151.19,201.21l1.6.93c3.74,2.17,6.39,3.62,7.93,4.38q3.87,1.88,4.6,2.1a23.43,23.43,0,0,0,8.77,2l1.62-.1,1.57-.29,1.51-.46a18,18,0,0,0,2.89-1.34,48.12,48.12,0,0,0,9.23-7.47q-7.54,2.31-11.72,3.13a47.47,47.47,0,0,1-5,.76c-1.1.11-2.21.17-3.31.18a42.86,42.86,0,0,1-8.77-1q-4.37-.89-10.92-2.89" transform="translate(25.07 30.27)"/><path class="cls-14" d="M217,191.41l-1.18,3.25q-6.28,18.1-12.72,26.42-4.82,5.67-6.12,6.33a35.79,35.79,0,0,1-9.87,5.55,31.34,31.34,0,0,1-20.82.76,29.28,29.28,0,0,1-4.24-1.89,36.25,36.25,0,0,1-5.76-4A105,105,0,0,1,146,217.61q3.63,9.3,7.3,13.13a18.94,18.94,0,0,0,3.26,2.83l1.94,1.15a20.69,20.69,0,0,0,4.65,1.72,29.26,29.26,0,0,0,5.46.77l3.5.06a62.38,62.38,0,0,0,7.6-.67,74.4,74.4,0,0,0,15.75-4.16,44.92,44.92,0,0,0,12.88-7.35l2.29-2.26A23.31,23.31,0,0,0,214,217.9q4.64-9.08,3-26.49" transform="translate(25.07 30.27)"/><path class="cls-6" d="M135.52,221.39q3.09,27,1.16,33.17-1.56,7.24-10.29,8a24.16,24.16,0,0,0,.26,13.36q1.93,6.66,10.4,22.32a30.82,30.82,0,0,0,7.91,3.95c1,.37,2.17.69,3.35,1q10.55,2.6,27.65,1.24-9.37-8.94-11.2-14.83c-.27-.45-.36-1.74-.27-3.88a54.32,54.32,0,0,1,1.87-7.65,12,12,0,0,0,.28-3.93q.18-.64-1.29-4.08l-3.83-7c-.87-2.34-1.21-3.73-1-4.18q0-2.76,2.86-5.34,1.29-1.36,9.91-7.42a14.1,14.1,0,0,0,2.43-2.37,4,4,0,0,0,1-2.33l-.22-1.16c-.71-1.55-2.45-3.08-5.22-4.61a119.88,119.88,0,0,0-16-6.84l-3.07-1.13-16.65-6.22Z" transform="translate(25.07 30.27)"/><path class="cls-6" d="M109,136.77l14.08-28q-3.57-21.34-3.84-32-.15-4.29.11-8.29l.38-3.92a44.57,44.57,0,0,1,1.55-7.29A37,37,0,0,1,124,50.79l1.73-3a47.74,47.74,0,0,1,4.13-5.49q5.55-6.57,18.66-16.22a177.42,177.42,0,0,0-26.2,15.13,63.45,63.45,0,0,0-7.19,6.22L112,50.94l-2.75,3.76-2.34,4.08L105,63.2l-1.4,4.8-.95,5.14-.54,5.46a102.24,102.24,0,0,0,0,11.75q.65,15.18,6.9,46.42" transform="translate(25.07 30.27)"/><path class="cls-6" d="M339.65,15.6h0" transform="translate(25.07 30.27)"/><path class="cls-6" d="M236.1,224.32a259.55,259.55,0,0,0,.27,27.64q1.26,11.88,2,13.29a46.9,46.9,0,0,0,4.25,11.26q7-7.65,15.82-17.52-14.1-12-19.59-25.18a48.87,48.87,0,0,1-2.71-9.49Z" transform="translate(25.07 30.27)"/><path class="cls-6" d="M240.67,132.75l.87-1.6q9-16.59,11.78-20c1-1.32,1.92-2,2.66-2.12a1.18,1.18,0,0,1,1,.45,3.51,3.51,0,0,1,.59,1,14.22,14.22,0,0,1,.86,5.12c0,.69,0,1.4-.08,2.13l-.11,1.09c-.1.73-.23,1.46-.39,2.2q-.08.52-.9,3.36l-2.39,7.38q-.41,1.33-.81,2.76c-.28,1-1,3.85-2.22,8.59l-.71,2.58c-.23.82-.47,1.57-.7,2.25a18.2,18.2,0,0,1-1,2.4c-.83,1.58-1.67,2.4-2.53,2.48s-.95-.77-.67-2.26q0-.15.18-1a10.87,10.87,0,0,0,2.64-2.05,5.49,5.49,0,0,0,.8-1.23,5.65,5.65,0,0,0,.35-1,10.08,10.08,0,0,0,.22-1.92l.1-3.49c0-.69.07-1.43.14-2.23s.17-1.66.31-2.6c0-.39.31-1.93.89-4.62q2-8.4,2.21-9.36a7.24,7.24,0,0,0,.24-3.37q-.56-.75-2.87,2.08-1.81,2.16-6.28,8.51,3.36,7,3.76,10.8a8.87,8.87,0,0,1,0,2.06l-.17,1a7.6,7.6,0,0,1-1.67,3,8.54,8.54,0,0,1-2.95,2.19c-.86.26-1.31.34-1.35.23a.54.54,0,0,1-.42-.37l-.06-.37a4,4,0,0,1,.16-1l1.19-3.63c.16-.54.29-1.06.4-1.58l.11-.76a6.61,6.61,0,0,0,0-1.41,6.7,6.7,0,0,0-.82-2.45,18.43,18.43,0,0,0-2.35-3.15" transform="translate(25.07 30.27)"/><path class="cls-6" d="M158.18,33l2.65.47q23.25,4,36.6,8,14.65,4.58,20.93,9.14a41.59,41.59,0,0,1,6.13,5l2.57,2.79a46.11,46.11,0,0,1,4.26,6q4.81,7.84,9.43,24.15-2.28-24.91-7.85-37.36a37.41,37.41,0,0,0-14.66-17.06q-11.56-7.47-36.16-13.84L158.18,33" transform="translate(25.07 30.27)"/><path class="cls-6" d="M184.58,106.83l2.41-.13a145.93,145.93,0,0,1,16.1-.28c1.42.07,2.77.2,4.07.36l1.9.3a25.26,25.26,0,0,1,3.68.93,19.08,19.08,0,0,1,3.24,1.41l1.42.86a20.73,20.73,0,0,1,2.53,2A42.51,42.51,0,0,1,226.7,121q-3.15-10-6-14.74a17.49,17.49,0,0,0-3.6-4.42,12.92,12.92,0,0,0-4.29-2.43,19.68,19.68,0,0,0-11.33.06q-6.66,1.81-16.93,7.41" transform="translate(25.07 30.27)"/><path class="cls-15" d="M136.73,207.36l.59,1.44q5.43,14.53,14.32,21.88a30.45,30.45,0,0,0,9.72,5.54,27.74,27.74,0,0,0,4.15,1.06l2,.28c1.33.15,2.68.24,4,.26q14.89-.1,25-6.31,6.27-3.31,12.79-20.66-7.34,12.85-15.18,17.63a42,42,0,0,1-9.86,4.67,35.42,35.42,0,0,1-5.15,1.29,27.38,27.38,0,0,1-6.18.43,23,23,0,0,1-7.78-1.75,32.68,32.68,0,0,1-7-4.05q-6.58-4.59-21.46-21.71" transform="translate(25.07 30.27)"/><path class="cls-16" d="M121.83,200.51q4.62,7.41,13.54,19.55c.39,3.35.72,6.46,1,9.35a82.89,82.89,0,0,0,6.31,6,47.89,47.89,0,0,0,8.84,5.81,43.4,43.4,0,0,0,4.63,2,18.93,18.93,0,0,0,3.49,1.07c1,.25,2.2.52,3.6.82l.19.05a45.1,45.1,0,0,0,6.94.5,41,41,0,0,0,9.34-1.27q8.06-2,20.34-8.09h0q-13.28,4.53-19.78,6.12a24.3,24.3,0,0,1-10.52.12l-.74-.2-.69-.15q-4.56-1.11-13.74-7.25-6-4.12-12.4-9.6-5.17-4.35-3.76-4h0l.08,0-16.7-20.84Z" transform="translate(25.07 30.27)"/><path class="cls-17" d="M138.46,222.34l.47,3q2.7,20.25,8.7,29.8a30.45,30.45,0,0,0,3,3.91A37.86,37.86,0,0,0,156,264a95.2,95.2,0,0,0,14.9,8.84,34.89,34.89,0,0,1-10.57-13.17q-3.21-6.44-8.35-27.65l-13.47-9.69" transform="translate(25.07 30.27)"/><path class="cls-18" d="M125.25,110.53l2.06,0q14.4.21,18.81,1.31a23.25,23.25,0,0,1,5.55,1.72l1.35.75a11.26,11.26,0,0,1,2.15,1.78,10.21,10.21,0,0,1,2.42,4.3,12.38,12.38,0,0,1,.4,2.32,13.24,13.24,0,0,1-.23,3.39q-.66,4.43-6.73,10.71c.71-4.65.85-8,.44-10.11a10.5,10.5,0,0,0-3-5.92,17,17,0,0,0-3.61-2.72,36,36,0,0,0-3.92-2q-5.13-2.25-15.7-5.61" transform="translate(25.07 30.27)"/><path class="cls-19" d="M118,131.58l7.89-3q5-6.19,7.51-7.67a11.41,11.41,0,0,1,6.32-2.08,13.7,13.7,0,0,1,6.84,1.7,38.5,38.5,0,0,1,8.46,6.95,29.87,29.87,0,0,0-3.6-5.94,14,14,0,0,0-1.37-1.41l-.78-.62a10.73,10.73,0,0,0-1.78-1.06A24.18,24.18,0,0,0,135.3,117a19,19,0,0,0-5.22,1.28,12.43,12.43,0,0,0-3.33,2.11q-2.58,2-8.72,11.2" transform="translate(25.07 30.27)"/><path class="cls-20" d="M141.37,112.15l-1.83.52q-12.16,3.26-17.67,6.34a22.6,22.6,0,0,0-5,3.74,38,38,0,0,0-4.64,5.87c.92-4.51,1.65-7.62,2.2-9.31a28,28,0,0,1,1.83-4.74,15.48,15.48,0,0,1,1.6-2.54l.94-1a9,9,0,0,1,4.31-2.22q3.06-.81,8.62.18,7.92,1.74,9.59,3.19" transform="translate(25.07 30.27)"/><path class="cls-19" d="M134.2,168.45l-.46.72c-.75,1.2-1.19,1.92-1.31,2.17-.28.48-.54,1-.77,1.46l-.34.73a14,14,0,0,0-.54,1.49l-.2.76-.13.76-.08.78a10.36,10.36,0,0,0,.06,1.57l.12.8a16.72,16.72,0,0,0,.39,1.63,41.72,41.72,0,0,0,2.33,5.81,68.21,68.21,0,0,1-.68-10.68q0-.78.12-1.5c0-.26.13-1,.33-2.09s.6-2.58,1.16-4.41" transform="translate(25.07 30.27)"/><path class="cls-21" d="M176.62,164.16l-.82,1q-4.44,5.48-8.06,6.74c-2.6,1-5.86.62-9.75-1.18a31.29,31.29,0,0,1-7.07-4.65,23.31,23.31,0,0,1-5.27-6.17,10.37,10.37,0,0,1-1.18-3.21,7.06,7.06,0,0,1-.05-2.1,7.73,7.73,0,0,1,1.81-3.85,14.77,14.77,0,0,1,1.55-1.61l.84-.7a13.9,13.9,0,0,1,1.63-1.11,7,7,0,0,1,1.92-.82q.5-.09.6.18.21,0-.36,1.32c-1.95,3.36-3,5.32-3.23,5.87a13,13,0,0,0-1.15,3.64q-.65,4.46,2.67,6.18,2.48,1.17,9.38.38a29,29,0,0,0,4.18,2.67,9.9,9.9,0,0,0,2.13.81,7,7,0,0,0,1.47.2q2.94.21,8.76-3.55" transform="translate(25.07 30.27)"/><path class="cls-22" d="M209.88,185.12l.4-1.43a43.24,43.24,0,0,0,1.7-8.31,16.92,16.92,0,0,0,0-2.57l-.18-1.22a9.81,9.81,0,0,0-.74-2.32,10.57,10.57,0,0,0-1.33-2.12l-.86-1a19.63,19.63,0,0,0-2.06-1.86,63.34,63.34,0,0,0-9.35-5.79,100.82,100.82,0,0,1,7.39,7.63,31.35,31.35,0,0,1,2.45,3.3,19.45,19.45,0,0,1,1.23,2.21,16.75,16.75,0,0,1,.84,2.22,18.33,18.33,0,0,1,.66,3.36,41.15,41.15,0,0,1-.13,7.89" transform="translate(25.07 30.27)"/><path class="cls-19" d="M130.71,125.64l-1.07.47a67.76,67.76,0,0,1-10.9,4.08,20.16,20.16,0,0,1-8.17.19,12.73,12.73,0,0,0,3.74,1.4,9.1,9.1,0,0,0,3.65-.18,17.33,17.33,0,0,0,1.78-.53c.28-.07,1.29-.49,3-1.26s4.41-2.2,8-4.17" transform="translate(25.07 30.27)"/><path class="cls-19" d="M191,28h0" transform="translate(25.07 30.27)"/><path class="cls-19" d="M97,125.75c.29.61.67,1.31,1.12,2.1v.38q0,1.61.06,3.06a20,20,0,0,1,3.13,4.94,33.46,33.46,0,0,1,2.12,6q.24.62,1.74,7.84l.16.28,3.22,6.82,0,.16a.88.88,0,0,1,0,.3c.3.91.58,1.89.83,3,.22.89.41,1.76.57,2.6.13.67.25,1.37.37,2.1h0a6.57,6.57,0,0,0,1,1,2.89,2.89,0,0,0,1,.49.52.52,0,0,0,.71-.36,9.79,9.79,0,0,0-.81-4.05l-.45-1.34a31.64,31.64,0,0,1-3.5-4.59,9.14,9.14,0,0,1-.93-2,6.56,6.56,0,0,1-.29-1.37q-.48-2.76,3.09-8.69l-.87-9.2-1.23-1a96.8,96.8,0,0,0-11-8.37Z" transform="translate(25.07 30.27)"/><path class="cls-19" d="M240.71,132.47l.4.66c.79,1.35,1.58,2.55,2.34,3.61a9.43,9.43,0,0,0,1.48,1.64,2.16,2.16,0,0,0,1.55.59,1.2,1.2,0,0,0,.46-.16l.2-.15a1.58,1.58,0,0,0,.31-.43,3,3,0,0,0,.25-1.4,9.12,9.12,0,0,0-.48-2.4,65.3,65.3,0,0,0-3.31-7.69l-3.2,5.73" transform="translate(25.07 30.27)"/><path class="cls-19" d="M253.68,121.73l-.15.61a28.89,28.89,0,0,0-.59,2.87c0,.34-.06.65-.07.93l0,.39c.08.78.45,1.1,1.12.94a3.05,3.05,0,0,0,1.28-.79,6.33,6.33,0,0,0,.69-.8l.33-.5a8.66,8.66,0,0,0,.64-1.22l.28-.71.29-.89.26-1a31.58,31.58,0,0,0,.67-4.26q.09-1.09.12-2.13c0-.69,0-1.34,0-1.95l-.06-.86c-.2-2.06-.77-3.16-1.72-3.3a1.18,1.18,0,0,0-.89.44,2,2,0,0,0-.32.47l-.12.28a4.06,4.06,0,0,0-.2.67,10.7,10.7,0,0,0-.22,1.22c-.29,2.58-.73,5.76-1.34,9.55" transform="translate(25.07 30.27)"/><path class="cls-19" d="M176.57,124.84l.38-.15a20.06,20.06,0,0,0,4.46-2.46l7.46-5.71a48.7,48.7,0,0,1,4.44-3,12.94,12.94,0,0,1,6.05-2.06A9.78,9.78,0,0,1,205,113a21.47,21.47,0,0,1,2.6,1.84l4.71,4.05q.77.64,1.53,1.2a12.48,12.48,0,0,0,2.43,1.46,14.27,14.27,0,0,0,7.52.87,16.11,16.11,0,0,1-4.57-1.9c-1-.64-1.69-1.08-2-1.29-3.17-2.35-5.39-3.95-6.69-4.78a24,24,0,0,0-3.45-1.9q-3.44-1.65-9.45-1.24c-5.81.32-10,1.34-12.62,3.09q-3.81,2.13-8.42,10.43" transform="translate(25.07 30.27)"/><path class="cls-19" d="M187,130.06l1.23.25a57.74,57.74,0,0,0,7.32,1.13c.81.06,1.6.08,2.4.07l1.18-.06a17.25,17.25,0,0,0,4.61-1,24,24,0,0,0,3.35-1.47,69.87,69.87,0,0,0,7.61-4.79q-12.82,5-17.27,5.81c-.77.16-1.49.28-2.17.37a22.52,22.52,0,0,1-2.83.2,30.65,30.65,0,0,1-5.43-.53" transform="translate(25.07 30.27)"/><path class="cls-19" d="M122.3,135.82l1.33.29q4,.9,7.81,1.38c.84.1,1.67.16,2.49.19l1.21,0a20,20,0,0,0,2.35-.16,17.75,17.75,0,0,0,2.24-.43,21.26,21.26,0,0,0,3.19-1.07,53.43,53.43,0,0,0,7-3.71c-5.19,2.21-9.35,3.47-12.45,3.79a41.58,41.58,0,0,1-6,.27c-2.1,0-5.12-.22-9.08-.57" transform="translate(25.07 30.27)"/><path class="cls-23" d="M167.42,147.06l-.87.15c-3.25.49-5.42,1.33-6.5,2.54a4.15,4.15,0,0,0-.77,1.18l-.25.71A7.88,7.88,0,0,0,159,155a10.11,10.11,0,0,0,1.36,3.53,8.56,8.56,0,0,0,1.19,1.49l.72.62a8.79,8.79,0,0,0,6.46,1.49,9.16,9.16,0,0,0,6.16-3.55,10.69,10.69,0,0,0,2.24-7.35l-.16-.78a3.57,3.57,0,0,0-.62-1.25,4.13,4.13,0,0,0-1.55-1.2c-1.21-.65-3.65-1-7.34-1" transform="translate(25.07 30.27)"/><path class="cls-24" d="M166.72,158.8l1.12,0q5.07,0,6.76-1.64a4.69,4.69,0,0,0,1.2-1.49l.41-1,.27-1.21a16.86,16.86,0,0,0,.11-3,47.76,47.76,0,0,0-.65-5.63q-2.5-13.76-2.4-14.38c-.2-1.64-.32-4.6-.36-8.91a14.5,14.5,0,0,0-.22-2l-.24-.85q-.94-3-6-3a12,12,0,0,0-3.83.7,7.66,7.66,0,0,0-2.43,1.37q-2.2,1.68-2,5.89a25.83,25.83,0,0,0,.28,2.79l1.23,7.59a25.8,25.8,0,0,1,.21,3,30.87,30.87,0,0,1-.22,4.26q-.15,1.6-1.14,7.32l-.21,2a11.44,11.44,0,0,0,.25,3.32q1.51,5.77,7.91,4.87" transform="translate(25.07 30.27)"/><path class="cls-25" d="M116.09,117.14l.5-1.68c1.48-5,3-8.64,4.58-10.77a14.72,14.72,0,0,1,7.71-5.83,36.92,36.92,0,0,1,5.88-1.51q16.31-2.59,19.31-3.35l21.75-5c6.16-1.09,9.77-1.61,10.86-1.57q11.25-1,18.11,3.83,7.53,5,15.11,18.76a52.79,52.79,0,0,0-12.66-6.17,30.18,30.18,0,0,0-11.58-1,71.91,71.91,0,0,0-9.09,1.44l-16.76,4.17a73.34,73.34,0,0,1-8.14,1.49,58.39,58.39,0,0,1-8.18.39L140,109.68c-1.31,0-2.6-.06-3.85-.05a35.48,35.48,0,0,0-6.91.66,30.78,30.78,0,0,0-13.11,6.85" transform="translate(25.07 30.27)"/><path class="cls-23" d="M221.58,67.39h0" transform="translate(25.07 30.27)"/><path class="cls-26" d="M191.61,103.48l2.31.17q9.79,1,15.14-.59a4.35,4.35,0,0,0,1.85-1.27l.47-.89q.56-2-1.08-5.27a35.17,35.17,0,0,0-1.92-3.42l-3.9-5.67L185.08,60.1q-2.16-2.94-4.36-5.46-7.28-8-16.54-8.63a24.81,24.81,0,0,0-5.87.08,20.39,20.39,0,0,0-3.89.93,17.58,17.58,0,0,0-3.66,1.76L149.07,50a17.32,17.32,0,0,0-3,3.24,35.07,35.07,0,0,0-4.56,10.34q-1,3.1-4.4,18.44c-.48,1.92-1,3.69-1.58,5.31a34.16,34.16,0,0,1-2.89,6.12A76.59,76.59,0,0,1,128,100l-1.12,1.93a3.8,3.8,0,0,0,0,3.14q4.63,7.28,20.89,6.6,14.56-.87,43.86-8.2" transform="translate(25.07 30.27)"/><path class="cls-27" d="M188.07,130.66l0,.89a18.21,18.21,0,0,0,1,7.07,35.2,35.2,0,0,0,5,8.91,85.91,85.91,0,0,0,9.41,10.78q5.55,5.3,9.76,7.19a12.09,12.09,0,0,0,5.52,1.24,7,7,0,0,0,4.66-2.09,12.5,12.5,0,0,0,2.93-5.38q1-2.39,1.36-9.53a51.06,51.06,0,0,0-.23-6,31.87,31.87,0,0,0-1.33-6.65q-1.84-5.51-5.52-7.37a10.8,10.8,0,0,0-6.28-.92,98.25,98.25,0,0,0-10.6,2.16,32,32,0,0,1-5.1.58,58.42,58.42,0,0,1-10.59-.88" transform="translate(25.07 30.27)"/><path class="cls-28" d="M147,147.81l-1.12,2q-2.24,4.09-4.56,7.64a30.33,30.33,0,0,1-4.86,5.86,12.32,12.32,0,0,1-2.62,1.81l-1.37.55a8.51,8.51,0,0,1-4.48.08,12.13,12.13,0,0,1-5.79-3.53,14.52,14.52,0,0,1-2.16-3,14.21,14.21,0,0,1-1-2.36q-2-6.66,1.43-13.94a11.35,11.35,0,0,1,4.29-4.79,7.25,7.25,0,0,1,5-.71,21.29,21.29,0,0,1,7.3,3.14,112.22,112.22,0,0,1,10,7.24" transform="translate(25.07 30.27)"/><path class="cls-29" d="M130.19,176.45l-.62.78a15.88,15.88,0,0,0-3.35,5.85,8.64,8.64,0,0,0-.28,1.93l0,1a10.07,10.07,0,0,0,.46,2.23,32.78,32.78,0,0,0,3.94,7.6q-.24-.18,7.58,10.87c1.2,1.65,1.87,2.31,2,2s-.12-1.79-.93-4.3q-.33-1.32-7-20.06l-1.23-3.86c-.67-2.29-.87-3.64-.6-4.06" transform="translate(25.07 30.27)"/><path class="cls-30" d="M172.75,221.49l-1.52-.12a43,43,0,0,0-7.7-.16,4.07,4.07,0,0,0-1.43.41l-.39.33a.93.93,0,0,0,0,1q2.35,3.72,12.4,7.91,11.12,4.13,19.16-1Q202.16,224,209,210.44a55.36,55.36,0,0,0,3-6.77,25,25,0,0,0,1.07-3.71c.59-2.9-.05-4.44-1.91-4.6-2.06,0-4.41,1.41-7.06,4.06a25.36,25.36,0,0,0-2.79,3.48q-1.49,2.16-4.73,7.62c-.63,1-1.29,2-2,2.91a18.05,18.05,0,0,1-4.59,4.56c-1.22,1-3.64,1.92-7.28,2.73a69.48,69.48,0,0,1-10,.77" transform="translate(25.07 30.27)"/><path class="cls-31" d="M166.51,197.47l.93.54q7.22,4.38,11.66,5a13.45,13.45,0,0,0,4.1,0,16.43,16.43,0,0,0,5.13-1.68,22.76,22.76,0,0,0,8.38-7.48q3.43-5.26,5.64-14.35l-35.84,17.9" transform="translate(25.07 30.27)"/></g><g id="layer3"><path class="cls-32" d="M173.43,121.73h0" transform="translate(25.07 30.27)"/><path class="cls-32" d="M141.55,122.79l-.29-.07a10.29,10.29,0,0,0-5.26,0,16.08,16.08,0,0,0-5.6,3l-2.23,1.75a13.91,13.91,0,0,0,4.2,1.84,30,30,0,0,0,8.31.43,47.22,47.22,0,0,0,9.46-1.26,7.05,7.05,0,0,1,1-.86c0-.23-.29-.52-.79-.86a37.76,37.76,0,0,0-4.77-2.55A24.86,24.86,0,0,0,141.55,122.79Z" transform="translate(25.07 30.27)"/><path class="cls-32" d="M200.77,115.28l-1.2,0a24.56,24.56,0,0,0-5.94,1,19.68,19.68,0,0,0-4.06,2c-2.73,1.7-3.74,3.45-3,5.27a120.38,120.38,0,0,0,12-1,36.16,36.16,0,0,0,9-2.72.69.69,0,0,1,0-.48Q204.14,117.44,200.77,115.28Z" transform="translate(25.07 30.27)"/><path class="cls-33" d="M141.55,122.79l-.29-.07a10.5,10.5,0,0,0-5.07-.07,13.85,13.85,0,0,0-4.45,2.13q-.88.56-3.57,2.7a14.19,14.19,0,0,0,3.68,1.7q-.66-2,1.47-3.64c.58-.68,2.07-1.05,4.47-1.13a20.23,20.23,0,0,1,6.72.85,8.48,8.48,0,0,1,1.42.62,6.61,6.61,0,0,1,1.51,1.08,2.74,2.74,0,0,1,.27,2.07,18.88,18.88,0,0,0,2.43-.54,7.05,7.05,0,0,1,1-.86c0-.23-.29-.52-.79-.86a37.76,37.76,0,0,0-4.77-2.55A24.86,24.86,0,0,0,141.55,122.79Z" transform="translate(25.07 30.27)"/><path class="cls-33" d="M200.77,115.28l-1.2,0a24.56,24.56,0,0,0-5.94,1,19.68,19.68,0,0,0-4.06,2c-2.73,1.7-3.74,3.45-3,5.27l3.34-.17a1.7,1.7,0,0,1-1.14-1.36l.07-.9a3.59,3.59,0,0,1,.76-1.57,5.47,5.47,0,0,1,1.59-1.26,11.62,11.62,0,0,1,2.43-1l1.52-.36a18.67,18.67,0,0,1,7.23-.13l.69.21a5.05,5.05,0,0,1,1.14.57,3.43,3.43,0,0,1,.82.79,3.75,3.75,0,0,1,.66,2.23l1.88-.78a.69.69,0,0,1,0-.48Q204.14,117.44,200.77,115.28Z" transform="translate(25.07 30.27)"/><path class="cls-34" d="M200.65,115.29l-1.08,0a24.56,24.56,0,0,0-5.94,1c-.75.28-1.45.57-2.11.88a5.93,5.93,0,0,0-.32,2,5.46,5.46,0,0,0,1.83,4c2.32-.17,4.15-.37,5.51-.58.91-.14,1.83-.33,2.76-.56a5.38,5.38,0,0,0,.87-3,5.5,5.5,0,0,0-1.51-3.68Z" transform="translate(25.07 30.27)"/><path class="cls-34" d="M141.55,122.79l-.29-.07a11.69,11.69,0,0,0-2.92-.35,8.05,8.05,0,0,0-2.15.28l-.29.08a9.61,9.61,0,0,0-1.7.62,6.42,6.42,0,0,0-.36,1.42,5.5,5.5,0,0,0,1.16,4.07,6.21,6.21,0,0,0,1,.95c1.34.06,2.91.05,4.71,0l2.14-.14a5.47,5.47,0,0,0,1.91-3.53l0-.75a5.29,5.29,0,0,0-.22-1.45l0-.11A25,25,0,0,0,141.55,122.79Z" transform="translate(25.07 30.27)"/><path class="cls-35" d="M197.21,116.8l.37.06a4.1,4.1,0,0,1,1.72.74.94.94,0,0,1,.42,1.06,1.59,1.59,0,0,1-1.16.73,5,5,0,0,1-2.07,0,4,4,0,0,1-1.73-.74.93.93,0,0,1-.41-1.06,1.57,1.57,0,0,1,1.16-.73,5.43,5.43,0,0,1,.62-.09h.35a6.11,6.11,0,0,1,.73,0" transform="translate(25.07 30.27)"/><path class="cls-35" d="M140.23,123.1l.37.06a4,4,0,0,1,1.72.74c.41.34.55.7.41,1.06a1.55,1.55,0,0,1-1.15.73,5,5,0,0,1-2.07,0,4,4,0,0,1-1.73-.74.93.93,0,0,1-.41-1.06,1.57,1.57,0,0,1,1.15-.73,6,6,0,0,1,.63-.09h.35a4.64,4.64,0,0,1,.73,0" transform="translate(25.07 30.27)"/><path class="cls-36" d="M203.4,176.84l-.4-.07a22.65,22.65,0,0,0-6.1.66q-9-2.46-13.79-2.3c-.91,0-2,.14-3.23.29q-10.87,2.19-11.34,1.93a22.68,22.68,0,0,1-3.69-.17l-7.1-1.09a9.36,9.36,0,0,0-2.66,0A14.31,14.31,0,0,0,149.7,178c-4.69,2.81-7,4.33-7,4.59-.94,1-1.16,1.88-.65,2.55a8.13,8.13,0,0,0,1.7,2.07l8.2,8,1.68,1.41a15.22,15.22,0,0,0,7.84,3.68q13.93,1.64,23.22-3.61a78.24,78.24,0,0,0,14.8-12,32.23,32.23,0,0,0,4.4-5.39C204.66,178,204.5,177.22,203.4,176.84Z" transform="translate(25.07 30.27)"/><path class="cls-37" d="M203.4,176.84l-.4-.07a22.65,22.65,0,0,0-6.1.66c-1.28-.37-2.58-.71-3.89-1a41.35,41.35,0,0,1-8.15,3.71,31.72,31.72,0,0,1-6,1.33,29.81,29.81,0,0,1-4,.21q-4.8-.07-9-4.41c-.52,0-2.88-.33-7.11-1.07-1.44-.15-2.26-.22-2.46-.2a13.16,13.16,0,0,0-5.61,1.49q-7.41,4.35-7.58,4.77a2.47,2.47,0,0,0-1.17,2.44,5.7,5.7,0,0,0,1.58,2.18l8.5,8.31a30.13,30.13,0,0,0,4.59,3.43c-1.61-3.8-1.64-6.09-.08-6.84a8.55,8.55,0,0,1,2.57-.52q13.51.38,16.61-.65a61.17,61.17,0,0,0,6.89-2.06l14.3-5.65a9.87,9.87,0,0,1,3-.37c.38,0,.7.25,1,.83Q206.24,177.29,203.4,176.84Z" transform="translate(25.07 30.27)"/><path class="cls-38" d="M203.57,176.88l-.17,0-.4-.07a21.3,21.3,0,0,0-5.8.6c-.6.23-1.17.43-1.7.58l-9.28,1.81-11,2.9a31.34,31.34,0,0,1-4.49.81,22.47,22.47,0,0,1-3.39-.06,121.81,121.81,0,0,0-14.46-2.2,20.33,20.33,0,0,0-9.2,1.16,6.93,6.93,0,0,0-1.63,1.15l-.12.21a1.35,1.35,0,0,0,.15,1.38,1.49,1.49,0,0,0,.24.43,1.69,1.69,0,0,1,.39-1.43,2,2,0,0,1,1,0,9,9,0,0,1,2,.81q1.53.82,7.21,4.93a9.61,9.61,0,0,0,1.88.88q12.85,1.62,16.43,1.23a31.06,31.06,0,0,0,4.73-.91l6.09-2.16q7.78-2,8.6-2.58a30.66,30.66,0,0,0,3.08-1.75l8-6.08c.83-.51,1.6-1,2.33-1.39a1.11,1.11,0,0,0-.51-.25Z" transform="translate(25.07 30.27)"/><path class="cls-37" d="M153.55,188.06l-.06-.54q-.75-5,.79-5.16a2.61,2.61,0,0,1,.86,0,79.36,79.36,0,0,0,9.24,1.54,30.58,30.58,0,0,0,5.51.18,41.59,41.59,0,0,0,6.55-1c1.47-.34,3-.72,4.53-1.13l1.14-.32,6.95-1.95,2.79-.69a8.31,8.31,0,0,1,1.52-.2,2.15,2.15,0,0,1,.7.05c.32,0,.49.24.53.65s-.83,2-2.89,4.72l-11.92,2.5c-4.57.9-8,1.53-10.26,1.88a58.66,58.66,0,0,1-6.21.71,27.38,27.38,0,0,1-9.77-1.21" transform="translate(25.07 30.27)"/><path class="cls-34" d="M156.69,187.38l-.19,0a3.85,3.85,0,0,1-2.07-.67,3.6,3.6,0,0,1-1.1-1.8,2.75,2.75,0,0,1,0-1.93q.19-.54,1.53-.93a18.2,18.2,0,0,0-3.9-1,10.06,10.06,0,0,0-3.8.31,19,19,0,0,0-2.38.79,6.05,6.05,0,0,0-1.93,1,.92.92,0,0,0,.28,0c.57-.1,1.08-.18,1.53-.23a8,8,0,0,1,1.19,0,3.05,3.05,0,0,1,1.76.57,3.85,3.85,0,0,1,.91.91,23.91,23.91,0,0,1,1.69,2.81,8.83,8.83,0,0,0,1,1.36,6,6,0,0,0,1.28,1.06,6.12,6.12,0,0,0,.77.38l.42.16a9.11,9.11,0,0,0,3.16.35,43.88,43.88,0,0,0,5.54-.64l-5.71-2.47" transform="translate(25.07 30.27)"/><path class="cls-34" d="M203.57,176.88l-.17,0-.4-.07a22.65,22.65,0,0,0-6.1.66l0,0c-.22.1-.46.23-.71.37a8.93,8.93,0,0,0-1.23,1L191,182.66l-6.37,2.11.65.07a39.81,39.81,0,0,0,6.05.27,7.55,7.55,0,0,0,3-.68,3.43,3.43,0,0,0,1.31-1.08,3.72,3.72,0,0,0,.35-.58,13,13,0,0,1,1-2.32,3,3,0,0,1,1.1-1.1,6.42,6.42,0,0,1,1.9-.67,39.5,39.5,0,0,1,4.42-.59.71.71,0,0,0,0-.14.92.92,0,0,0-.79-1.07Z" transform="translate(25.07 30.27)"/><path class="cls-39" d="M180.14,195.44l1.38-.7q4.8-2.44,6.35-3.33a27.49,27.49,0,0,0,3.42-2.15,3.42,3.42,0,0,0,.79-.8.56.56,0,0,0,.09-.49c0-.26-.52-.44-1.39-.52a21.94,21.94,0,0,0-6,.79c-.35.06-1.45.38-3.31.95q-9,3.1-8.8,3c-.69.2-1.35.38-2,.53l-4.83,1a6.26,6.26,0,0,0-1.06.35c-1.14.55-1.32,1.36-.55,2.41a5,5,0,0,0,1.55,1.38,5.67,5.67,0,0,0,1.11.51,6.6,6.6,0,0,0,1.57.35,8.49,8.49,0,0,0,1.67,0,14.44,14.44,0,0,0,2.77-.54,60.14,60.14,0,0,0,7.26-2.69" transform="translate(25.07 30.27)"/></g><g id="layer4"><path class="cls-32" d="M153.3,184.91l-.14-.3c-.54-1.27-.83-1.28-.86,0a8.59,8.59,0,0,0,.82,3.73,1.71,1.71,0,0,0,1.75,1,2.89,2.89,0,0,0,1.12.85,3.27,3.27,0,0,0,1.9-.14c.6.65,1.05.92,1.35.83s.94-.36,1.79-1.09a2.36,2.36,0,0,0,1,.85,3.89,3.89,0,0,0,2.19-.19c.23.68.94,1,2.11,1,2.79,0,4.45-.23,5-.58a8.87,8.87,0,0,0,2.52,0,10.9,10.9,0,0,0,4.95-1.81,4.31,4.31,0,0,0,2.33,0,5.7,5.7,0,0,0,2.25-2.3.94.94,0,0,0,1.23.9A4.67,4.67,0,0,0,188,185.8q.87,1,1.65.78a2.72,2.72,0,0,0,2.08-1.68c.34.54.92.66,1.72.34.48-.21.88-.92,1.19-2.12a9.28,9.28,0,0,0,.21-4.09c-.16-.27-.39-.23-.72.12a12.81,12.81,0,0,0-1.47,2.06c-.09-1.76-.45-2.42-1.09-2a14,14,0,0,0-2.86,3.11c.7-2.26-.08-3-2.32-2.31q-1.69.42-3.27,3.33c.12-1.54-.31-2.28-1.3-2.23q-1.74,0-3.66,2.66.15-1.78-.9-1.68a5,5,0,0,0-1,.17l-4,1.18a4.85,4.85,0,0,0-1.76,1.26,6.74,6.74,0,0,0-2.35-.94,6.07,6.07,0,0,0-2.5-.22q-1.32.08-1.29,2.82c-1.14-1.58-2-2.38-2.46-2.41s-1.18.71-1.61,2.15c-1.63-2-2.92-3.1-3.89-3.22s-1,.76-.38,2.75c-1.13-1.27-1.83-1.93-2.1-2s-.5.28-.53,1.21" transform="translate(25.07 30.27)"/><path class="cls-33" d="M155.77,184.91h0c0,.25.1.5.16.75l-.54-.59h0l1.13,3.51a5.06,5.06,0,0,1,.14,1.68,7.2,7.2,0,0,0,1.24-.22l.09.09-2.21-5.22Z" transform="translate(25.07 30.27)"/><path class="cls-33" d="M152.55,183.65s0,0-.07,0a3.73,3.73,0,0,0-.1,2.13,7,7,0,0,0,1,2.87,1.4,1.4,0,0,0,.86.59,3,3,0,0,0,.67.08c-.76-2.11-1.26-3.71-1.53-4.81h0c0,.12,0,.26,0,.39C153,184.3,152.74,183.7,152.55,183.65Z" transform="translate(25.07 30.27)"/><path class="cls-33" d="M160.73,184.83a7.08,7.08,0,0,0-.53,1.3l-.32-.37h0c.11.33.24.69.39,1.07a24.87,24.87,0,0,0,.38,3.27l.39-.31a4.18,4.18,0,0,0,.54.57l-.87-4.81A2.18,2.18,0,0,1,160.73,184.83Z" transform="translate(25.07 30.27)"/><path class="cls-33" d="M164.51,184.49a6.17,6.17,0,0,0-.24,1.9,2.56,2.56,0,0,0-.2-.26h0l.18,1.81L164,190.5l.24-.06a1.46,1.46,0,0,0,.38.57l.29-2.5-.41-3.83a1.37,1.37,0,0,1,0-.19Z" transform="translate(25.07 30.27)"/><path class="cls-33" d="M171.91,183.57h0a6.36,6.36,0,0,0-1.48,1.15l-.11-.07h0c0,1.08,0,2.41,0,4a5.24,5.24,0,0,0,.35,1.47l.43.88a.66.66,0,0,0,.23-.13.66.66,0,0,1-.25-.29,10.67,10.67,0,0,1,.85-7Z" transform="translate(25.07 30.27)"/><path class="cls-33" d="M179.49,182.19a10.8,10.8,0,0,0-1.28,1.48,50.74,50.74,0,0,1,0,5.71l.6-.36h0a39.79,39.79,0,0,1,.31-5.68,5.18,5.18,0,0,1,.35-1.15Z" transform="translate(25.07 30.27)"/><path class="cls-33" d="M183,182.05v0Z" transform="translate(25.07 30.27)"/><path class="cls-33" d="M183.89,182.06a14.45,14.45,0,0,0-.82,1.31,7.27,7.27,0,0,0-.08-1.27h0l-.39,5.43c0,.16-.05.3-.07.43.3-.36.59-.78.88-1.19a.74.74,0,0,1,0,.14Z" transform="translate(25.07 30.27)"/><path class="cls-33" d="M188.86,180.83c-.16.92-.33,1.73-.5,2.42a19.2,19.2,0,0,1-1,3l-.25.49a3.29,3.29,0,0,0,.84-.9l.1.1,1.59-4.76h0c-.33.4-.64.8-1,1.21a6.82,6.82,0,0,0,.21-1.52Z" transform="translate(25.07 30.27)"/><path class="cls-33" d="M194.62,178.86c-.43-.1-1.22,1.12-2,2.35v-.14h0a18.27,18.27,0,0,1-1.5,4.69,5.69,5.69,0,0,0,.59-.86,1,1,0,0,0,.63.48l.17,0c.5.07,1.33,0,1.87-1.47s.78-4.23.45-4.91A.29.29,0,0,0,194.62,178.86Z" transform="translate(25.07 30.27)"/></g><g id="layer5"><path class="cls-34" d="M191.07,123.37l-1.08.2a70.59,70.59,0,0,1-7.3,1.18c-1.51.14-2-.07-1.51-.62a5.39,5.39,0,0,1,1.07-.94l3.62-2.62a57.77,57.77,0,0,1,5.46-4.23,12,12,0,0,1,4.58-1.76,13.89,13.89,0,0,1,2.82-.17,14.41,14.41,0,0,1,3.33.53A16.76,16.76,0,0,1,204.8,116c.49.24,1,.48,1.44.74,2.29,1.31,3.6,2.05,4,2.21a11.85,11.85,0,0,0,1.58.69,15.88,15.88,0,0,0,5.26.86,29.42,29.42,0,0,1-7.28-.17,11.21,11.21,0,0,1-2.18-.65,41.56,41.56,0,0,1-4.37-2.22,13.44,13.44,0,0,0-2-.82,11.71,11.71,0,0,0-4.85-.43l-.8.11q-.81.14-1.59.33a15,15,0,0,0-2.91,1.1,10.4,10.4,0,0,0-3.46,2.68c-.79,1.14-.92,1.88-.39,2.21.28.39,1.56.64,3.84.73" transform="translate(25.07 30.27)"/><path class="cls-34" d="M207.75,118.76l-.48.27a31.62,31.62,0,0,1-5.39,2.59,33.37,33.37,0,0,1-6.39,1.32,37.62,37.62,0,0,0,9-1.54,36.81,36.81,0,0,0,5.27-2.37l-2-.27" transform="translate(25.07 30.27)"/><path class="cls-34" d="M181.63,119.2l.56-.51a23,23,0,0,1,7.65-5,26.71,26.71,0,0,1,8.65-1.67,22.33,22.33,0,0,1,3.43.19,17.46,17.46,0,0,1,3.77,1,24.79,24.79,0,0,1,3.75,1.79c1.8,1.06,3.55,2.22,5.27,3.47a40.73,40.73,0,0,0-4.65-4.12,17.93,17.93,0,0,0-3.81-2.12,18.28,18.28,0,0,0-2.27-.72l-1.67-.33a29.8,29.8,0,0,0-5.72-.29c-1,0-2,.12-2.91.23a31.9,31.9,0,0,0-4,.74,14.76,14.76,0,0,0-4,1.6,7.92,7.92,0,0,0-2.31,2.1,13.6,13.6,0,0,0-1.73,3.66" transform="translate(25.07 30.27)"/><path class="cls-40" d="M177,110.56l.1-.45a10.12,10.12,0,0,1,1.72-4.43q1-1.34,4.44-2.79c-1,.21-2.38,1.93-4.27,5.16q2.75-4,5.45-4.85a16.74,16.74,0,0,1,1.72-.53l5.16-1.19q6.07-1.62,6.78-1.73a27.74,27.74,0,0,1,6.08-.73,18.29,18.29,0,0,1,4.79.67,16.13,16.13,0,0,1,4.69,2.12q3.62,2.4,7.38,8.39a50.38,50.38,0,0,0-7.74-4.43,13.54,13.54,0,0,0-6-1.22l-1,.06a20.2,20.2,0,0,0-2,.31l-7.44,1.87c-.77.17-1.54.33-2.33.48l-3.53.59c-5.52.74-8.35,1.16-8.51,1.25a15.08,15.08,0,0,0-3.93,1.27,32.51,32.51,0,0,1,2.49-3.71,8.87,8.87,0,0,1,2.16-1.87,12.51,12.51,0,0,0-5.22,5q1.76-4.12,2.52-4.56a10.69,10.69,0,0,0-3.52,5.29" transform="translate(25.07 30.27)"/><path class="cls-34" d="M142.45,129.53h1.08a57.57,57.57,0,0,0,8.2-.37c1.65-.27,2.17-.8,1.55-1.57q-2.06-2-7.93-4.35a23.24,23.24,0,0,0-8-1.82l-.89,0a10.59,10.59,0,0,0-1.64.27,11.6,11.6,0,0,0-2.85,1.12,22.79,22.79,0,0,0-3,2l-5.73,4.53a9.35,9.35,0,0,1-2.15,1.16,23.08,23.08,0,0,0,6.68-1.8,11.11,11.11,0,0,0,1.84-1.1c.41-.26,1.58-1.22,3.51-2.85a13.85,13.85,0,0,1,1.82-1.26,7.25,7.25,0,0,1,3.48-1,14,14,0,0,1,5.75,1.19,10.71,10.71,0,0,1,4.62,3c.36.61.13,1.1-.68,1.49a23.55,23.55,0,0,1-5.65,1.29" transform="translate(25.07 30.27)"/><path class="cls-34" d="M126.75,127.88l.41.14q2.26.78,3.69,1.17a22.42,22.42,0,0,0,3.06.65c.39,0,.78.09,1.17.11l.58,0c.39,0,.78,0,1.16,0,1,0,2.31-.1,4-.26-1.6.09-2.85.12-3.75.08-.36,0-.72,0-1.08-.07l-.54-.06-.55-.08-.54-.1-1-.25-.51-.15c-.34-.11-.68-.22-1-.35-.68-.22-2-.81-4.12-1.75l-1,.87" transform="translate(25.07 30.27)"/><path class="cls-34" d="M123.43,125.46l.43-.5a19.69,19.69,0,0,1,3-2.86,14.67,14.67,0,0,1,2.79-1.64,16.74,16.74,0,0,1,1.79-.69,27.53,27.53,0,0,1,3.14-.81,31.57,31.57,0,0,1,4.56-.57,23.52,23.52,0,0,1,3.27.07,13.24,13.24,0,0,1,6.23,2.21,30.78,30.78,0,0,1,3.32,2.67,23.06,23.06,0,0,0-3-3.42,9.9,9.9,0,0,0-2.66-1.72,10.89,10.89,0,0,0-3.53-.87l-1.16-.08c-.8,0-1.62,0-2.48.06a33.83,33.83,0,0,0-5.12.77,26.55,26.55,0,0,0-3.47,1,16.79,16.79,0,0,0-1.88.82,10.63,10.63,0,0,0-3.14,2.36,15.62,15.62,0,0,0-2.08,3.18" transform="translate(25.07 30.27)"/><path class="cls-41" d="M154.08,115.76l-.2-.43a12,12,0,0,0-2.09-3.43,5.25,5.25,0,0,0-2.25-1.34,18.41,18.41,0,0,0-3.49-.62,6.73,6.73,0,0,1,2.66,1.21,31.83,31.83,0,0,1,3.57,3.47q-3.89-3.84-5.43-4.11l-3.3-.8c-3.46-1-5.54-1.54-6.24-1.7-1.55-.37-2.68-.61-3.38-.72a21.53,21.53,0,0,0-7.08-.27q-5.68,1-8.53,4.54-2.37,2.64-3.22,9.81c1.42-2.83,2.59-4.56,3.48-5.18A9.3,9.3,0,0,1,123.4,114a31.67,31.67,0,0,1,5.8-.42l16.17.36q4.15.21,5.86,1.54a8.56,8.56,0,0,0-2.18-2.79,14.31,14.31,0,0,0-3.84-1.87,22.44,22.44,0,0,1,4.11,1.87,26.85,26.85,0,0,1,3.77,3q-.68-1.79-4.05-4.59a32.2,32.2,0,0,1,5,4.7" transform="translate(25.07 30.27)"/><path class="cls-34" d="M174.66,165.11l-.5.24a24.27,24.27,0,0,1-3.89,1.58,6.92,6.92,0,0,1-2.9.26,8.52,8.52,0,0,1-2.8-.95c-.24-.12-.6-.33-1.09-.64L161,164c-.27-.18-.53-.34-.8-.49a7.42,7.42,0,0,0-1.33-.64,5.39,5.39,0,0,0-1.7-.32,10.53,10.53,0,0,0-2.2.2l6.33,2.32c.93.69,1.59,1.16,2,1.42a11,11,0,0,0,1.22.71,7.06,7.06,0,0,0,2.31.77,5.44,5.44,0,0,0,1.2,0l.57-.09a7.51,7.51,0,0,0,1.17-.31,25.25,25.25,0,0,0,4.86-2.45" transform="translate(25.07 30.27)"/><path class="cls-34" d="M177.5,162.77l-.38.12c-1.08.35-1.93.59-2.55.73s-.65,0-.35-.22a22.44,22.44,0,0,1,3.1-1.87,21.79,21.79,0,0,1,3.37-1.5,2.69,2.69,0,0,1,2.4,0,1.63,1.63,0,0,1,.34.3,1.54,1.54,0,0,1,.23.39l.06.2a1,1,0,0,1,0,.42l-.06.21a1.13,1.13,0,0,1-.27.37,3.82,3.82,0,0,1-2,.65,35.07,35.07,0,0,1-3.84.17" transform="translate(25.07 30.27)"/><path class="cls-34" d="M158.59,164.58l-.43.06a17.22,17.22,0,0,1-3,.23,7,7,0,0,1-2.53-.48A7.08,7.08,0,0,1,149,161a6.59,6.59,0,0,1-.7-2.48l0-.69a10.6,10.6,0,0,1,.14-1.45,32.53,32.53,0,0,1,2.51-7.19,12.66,12.66,0,0,0-3.09,5.85,14,14,0,0,0-.26,2.17,13,13,0,0,0,0,1.53,9.06,9.06,0,0,0,.21,1.49l.18.71a6.41,6.41,0,0,0,.55,1.28,4.5,4.5,0,0,0,3.1,2.17q1.89.56,7,.15" transform="translate(25.07 30.27)"/><path class="cls-34" d="M186,146.55l.24.45a18.36,18.36,0,0,1,2.19,5.48,13.75,13.75,0,0,1,.26,1.89,11.4,11.4,0,0,1,0,1.31,9.81,9.81,0,0,1-.36,2.55,7.17,7.17,0,0,1-.43,1.15l-.3.53-.34.48a6.2,6.2,0,0,1-.84.86,17.84,17.84,0,0,1-5.24,2.75,31,31,0,0,0,6-2.66,5.87,5.87,0,0,0,1.32-1.08,4.25,4.25,0,0,0,1-1.67,6.82,6.82,0,0,0,.28-1.87c0-.65,0-1.3-.06-2a3.19,3.19,0,0,0,.1-.82,3.67,3.67,0,0,0-.14-.88c0-.56-1.25-2.73-3.69-6.5" transform="translate(25.07 30.27)"/><path class="cls-34" d="M261.11-30.27h0" transform="translate(25.07 30.27)"/></g><g id="layer6"><path class="cls-34" d="M240.37,114.69h0l0,.28h0c1,18.91,2,37.86,1.21,51.36h0c-.74,13.62-3.22,21.7-5.68,29.74l0-.22c-.1,11.3-.19,22.46,1.85,31.18h0a48.79,48.79,0,0,0,10,19.74h0a103.66,103.66,0,0,0,10.81,11.41.78.78,0,0,1-1.07,1.13h0a106,106,0,0,1-11-11.57h0a50.49,50.49,0,0,1-10.31-20.36h0c-2.09-8.94-2-20.31-1.89-31.55a.83.83,0,0,1,0-.22h0c2.46-8,4.89-15.94,5.62-29.36h0c.73-13.4-.23-32.26-1.21-51.2h0l0-.27a.78.78,0,0,1,.74-.82A.77.77,0,0,1,240.37,114.69Z" transform="translate(25.07 30.27)"/><path class="cls-34" d="M256.64,105.93a5.74,5.74,0,0,0-2.34-.05c-2.79.48-6.23,2.75-9.44,4.84a.78.78,0,0,0,.85,1.31c3.34-2.19,6.46-4.2,8.85-4.61a4.06,4.06,0,0,1,1.71,0c1.19.29,2.22,1.3,2.86,3.53.89,3.12.89,8.33-1.13,14.72-.9,2.85-2.21,5.93-3.54,9.08s-2.74,6.46-3.72,9.57c-.22.7-.43,1.4-.6,2.08a51.71,51.71,0,0,0-1.34,9.07,33.67,33.67,0,0,1-.71,5.41,9.85,9.85,0,0,1-.38,1.16c-1.07,2.68-3.41,4.33-6.21,5.85-.52.29-1.06.57-1.62.85,0,.59-.08,1.17-.13,1.73a.76.76,0,0,0,.32-.08l1.3-.67h0c3.18-1.65,6.39-3.6,7.79-7.11a11.64,11.64,0,0,0,.43-1.34,35.23,35.23,0,0,0,.76-5.67,50.4,50.4,0,0,1,1.29-8.81c.17-.65.37-1.33.58-2,1-3,2.31-6.22,3.67-9.43s2.66-6.28,3.59-9.21c2.09-6.59,2.14-12.12,1.14-15.61C259.9,108,258.58,106.41,256.64,105.93Z" transform="translate(25.07 30.27)"/><path class="cls-34" d="M108.13,126.54h0v0h0c2.12,15.69,4.24,31.35,5.85,42.63h0c1.61,11.31,2.69,18.08,5.33,24.24h0c2.3,5.39,5.81,10.34,8.72,14.45h0c.42.58.84,1.18,1.22,1.72h0c3.08,4.4,5,7.5,6.81,10.58a.89.89,0,0,1,.11.35h0l.12,1.72h0c.51,6.79,1,13.58,1.44,19.4h0c.45,6.23.88,11.78-.94,15.35h0c-1.86,3.65-6,5.11-9.63,6.45a.78.78,0,1,1-.54-1.46h0c3.84-1.4,7.26-2.69,8.79-5.7h0c1.57-3.08,1.24-8.09.77-14.53h0c-.43-5.91-.92-12.52-1.44-19.4h0l-.12-1.72.11.35c-1.86-3.08-3.71-6.15-6.75-10.5h0l-1.21-1.71h0c-2.9-4.09-6.51-9.17-8.89-14.74h0c-2.73-6.39-3.83-13.37-5.44-24.63h0c-1.61-11.27-3.73-27-5.85-42.64h0v0a.78.78,0,1,1,1.54-.21Z" transform="translate(25.07 30.27)"/><path class="cls-34" d="M105.69,122.66h0l-.09,0c-3.3-.73-7.19-1.63-8.82-.82-2.13,1.05-.63,4.15.06,5.76a56.38,56.38,0,0,0,3.14,13.7c1.11,2.87,2.64,6,4.09,8.93,1.16,2.36,2.27,4.61,3.09,6.58a36.35,36.35,0,0,1,2.62,10.43c-.51,2.28-1.06,4.82-.17,7.31.79,2.21,2.71,4.31,4.63,6.28h0c.24.24.47.49.71.72a.75.75,0,0,0,1,.09c-.09-.51-.18-1-.28-1.55-.67-.69-1.32-1.37-1.91-2h0a13.16,13.16,0,0,1-2.69-4c-.73-2-.29-4.15.24-6.54v-.05a.62.62,0,0,0,0-.27,38,38,0,0,0-2.74-10.95c-.84-2-2-4.32-3.12-6.66-1.46-3-3-6-4-8.8a55.62,55.62,0,0,1-3.07-13.48.66.66,0,0,0-.06-.2c-1.11-2.6-1.32-3.6-.83-3.84,1-.49,4.08.13,7.8,1l.09,0a.78.78,0,0,0,.35-1.52Z" transform="translate(25.07 30.27)"/><path class="cls-34" d="M128.22,260.26h0l0,.06h0c-1.24,4.5-2.44,8.89-.31,16.19h0c2.17,7.45,7.78,17.87,13.46,28.42l-.09-.13h0c4.94,5.6,9.84,11.14,13.73,14.64h0a53.4,53.4,0,0,0,6.28,4.84h0c.94.63,1.79,1.21,2.52,1.81h0a18.83,18.83,0,0,1,4.27,5.25.78.78,0,0,1-1.33.81h0a17.4,17.4,0,0,0-3.92-4.86h0c-.67-.54-1.47-1.08-2.41-1.73h0a55.26,55.26,0,0,1-6.45-5h0c-4-3.58-8.94-9.2-13.86-14.77h0a.43.43,0,0,1-.09-.13h0c-5.65-10.48-11.36-21.08-13.59-28.72h0c-2.25-7.72-1-12.46.3-17.05h0l0,0a.77.77,0,0,1,1-.55A.79.79,0,0,1,128.22,260.26Z" transform="translate(25.07 30.27)"/><path class="cls-34" d="M264.46,242.46h0c.28,1.26.55,2.55-.27,5.77h0a40.72,40.72,0,0,1-7.2,14.28h0c-3.65,4.84-9,10.24-14.5,15.77h0c-1.25,1.27-2.56,2.58-3.81,3.86h0c-2.23,2.27-4.46,4.59-6.58,6.79h0c-2,2-3.83,4-5.58,5.76h0c-2.09,2.13-4,4-5.66,5.55h0a34.29,34.29,0,0,1-9.65,6.64l-.08,0h0a23.33,23.33,0,0,0-5.86,2.55h0a22.77,22.77,0,0,0-4.44,4.53h0a.84.84,0,0,1-.23.18h0c-11.5,6.1-23,12.18-31.76,17.86h0c-8.73,5.64-14.79,10.84-21.15,24h0c-6.4,13.22-13.08,34.41-19.8,55.69a.78.78,0,0,1-1.48-.47h0c6.7-21.23,13.42-42.55,19.89-55.9h0c6.5-13.43,12.77-18.83,21.7-24.59h0c8.86-5.72,20.39-11.83,31.87-17.93h0l-.22.18h0a24.19,24.19,0,0,1,4.76-4.83h0a24.68,24.68,0,0,1,6.25-2.75h0l-.08,0a32.67,32.67,0,0,0,9.28-6.39h0c1.62-1.49,3.51-3.36,5.6-5.49h0c1.75-1.78,3.61-3.71,5.57-5.75h0c2.11-2.19,4.35-4.52,6.59-6.8h0c1.26-1.28,2.56-2.6,3.82-3.86h0c5.51-5.56,10.79-10.88,14.36-15.61h0a39.15,39.15,0,0,0,6.93-13.73h0c.76-3,.5-4,.26-5a.78.78,0,0,1,1.52-.34Z" transform="translate(25.07 30.27)"/><path class="cls-34" d="M241.14,236h0c8.33.58,16.77,1.16,22,2.44h0c.44.11.86.22,1.26.34h0c5.28,1.6,6.21,4.26,8.05,9.44h0a1,1,0,0,0,.05.16h0c1.88,5.29,4.79,13.35,9.45,18.85h0a48.93,48.93,0,0,0,6.05,5.71h0a38.51,38.51,0,0,1,4.75,4.42h0a10.06,10.06,0,0,1,2.1,3.68h0c1.54,5.28-2.5,12.24-7.39,18.41h0c-5,6.28-11.17,12.13-17.3,17.93a.59.59,0,0,1-.18.13h0l-.1.05h0c-6.51,3.38-13.18,6.82-23.24,6.79h0c-8.06,0-18.28-2.26-25.56-3.85h0c-1.81-.4-3.41-.75-4.79-1h0c-7-1.41-7.38-.67-7.78-.32l.19-.24L202.79,331a.79.79,0,0,1-.67.44h0c-9.31.34-18.5.68-25.93,2.63h0c-7.4,1.93-13.08,5.47-18.86,9.08a.77.77,0,0,1-1.07-.25.79.79,0,0,1,.25-1.07h0c5.77-3.59,11.63-7.26,19.29-9.27h0c7.63-2,17-2.33,26.26-2.67h0l-.67.43,5.88-12a.79.79,0,0,1,.19-.25h0c1-.91,2.15-1.42,9.11,0h0c1.39.28,3,.64,4.81,1h0c7.33,1.61,17.38,3.8,25.23,3.82h0c9.65,0,16-3.25,22.52-6.61h0l.11-.06-.18.12c6.16-5.82,12.25-11.59,17.15-17.76h0c5-6.29,8.41-12.61,7.12-17h0a8.76,8.76,0,0,0-1.79-3.11h0a38.54,38.54,0,0,0-4.57-4.23h0a50.82,50.82,0,0,1-6.24-5.9h0c-4.86-5.75-7.86-14.09-9.72-19.33h0c-.08-.23,0,.07-.06-.16h0c-1.83-5.15-2.54-7.11-7-8.47h0c-.37-.11-.76-.22-1.18-.32h0c-5-1.24-13.31-1.82-21.71-2.4a.78.78,0,0,1,.11-1.55Z" transform="translate(25.07 30.27)"/><path class="cls-34" d="M136.73,236h0c-5.25.77-10.19,1.51-14.06,5.58h0c-2.77,2.91-5,7.55-7,11.61h0c-.82,1.68-1.59,3.28-2.32,4.55h0a19.54,19.54,0,0,1-4,5h0a11.11,11.11,0,0,0-1.62,1.8h0a19.31,19.31,0,0,0-1.37,2.77h0a25.64,25.64,0,0,1-2.09,4.1h0a12.45,12.45,0,0,1-.83,1.12h0a24.41,24.41,0,0,1-3.16,3h0a36.48,36.48,0,0,0-4.71,4.56h0c-.38.46-.77.95-1.15,1.49h0c-3.32,4.6-6.54,12.13-8,18.47h0c-1.48,6.31-1.24,11.43-1,16.65l-.91-.73a43.48,43.48,0,0,1,10.67-.81h0c1.07.06,2.25.17,3.44.27h0c1.31.12,2.67.24,4,.31h0a28.48,28.48,0,0,0,7.55-.4h0a30.35,30.35,0,0,0,8.55-3.78h0c1.19-.69,2.33-1.35,3.38-1.82h0a12.06,12.06,0,0,1,7.94-.67.76.76,0,0,1,.55.4.8.8,0,0,1,0,.69h0l-2.77,6.12-.33-1h0a143.68,143.68,0,0,0,17.1,8.4h0c3.55,1.36,7.17,2.4,10.3,3.3h0c2,.57,3.76,1.08,5.2,1.58h0a16.12,16.12,0,0,1,6.5,3.77l0,.05h0a.78.78,0,0,1-1.15,1h0l0,.05a14.43,14.43,0,0,0-6-3.45h0c-1.39-.48-3.14-1-5.12-1.55h0c-3.12-.9-6.8-2-10.42-3.35h0a145.44,145.44,0,0,1-17.29-8.48h0a.77.77,0,0,1-.33-1h0l2.76-6.12.57,1.08a10.57,10.57,0,0,0-7,.56h0c-1,.43-2,1-3.23,1.74h0a32,32,0,0,1-9,4h0a29.86,29.86,0,0,1-8,.43h0c-1.4-.07-2.77-.19-4.09-.31h0c-1.21-.11-2.33-.21-3.39-.26h0a41.9,41.9,0,0,0-10.32.78.78.78,0,0,1-.62-.16.77.77,0,0,1-.28-.57h0c-.25-5.22-.5-10.54,1-17.07h0a58.75,58.75,0,0,1,8.28-19h0c.41-.56.81-1.09,1.22-1.58h0a37.11,37.11,0,0,1,4.9-4.74h0a24.74,24.74,0,0,0,3-2.79h0c.26-.32.5-.65.73-1h0a24.16,24.16,0,0,0,2-3.86h0a19.64,19.64,0,0,1,1.5-3h0a11.89,11.89,0,0,1,1.84-2.06h0A18,18,0,0,0,112,257h0c.7-1.22,1.44-2.76,2.27-4.46h0c1.94-4,4.3-8.87,7.28-12h0c4.29-4.51,9.78-5.29,15-6.05a.78.78,0,1,1,.22,1.54Z" transform="translate(25.07 30.27)"/><path class="cls-34" d="M294.23,278.57h0c22.65,12.28,45.34,24.58,59.11,33.51h0c13.81,8.95,18.75,14.57,22.33,20.79h0c3.55,6.16,5.75,12.87,7.92,19.49v.06l0,.16h0c3.49,14.06,7,28.19,8.54,43.88h0c1.56,15.75,1.19,33.05.82,50.29a.78.78,0,0,1-1.55,0h0c.37-17.27.74-34.47-.82-50.1h0c-1.55-15.57-5-29.59-8.49-43.67h0l0-.16v.06c-2.18-6.65-4.33-13.2-7.78-19.2h0c-3.42-5.94-8.15-11.4-21.83-20.26h0c-13.72-8.89-36.34-21.16-59-33.45a.77.77,0,0,1-.31-1.05A.78.78,0,0,1,294.23,278.57Z" transform="translate(25.07 30.27)"/><path class="cls-34" d="M102.72,272.91h0c-10.45,4-20.86,7.91-31.1,12.88h0c-10.23,5-20.3,10.95-34,19.92h0c-13.75,9-31,20.83-41.75,41.28h0c-10.77,20.5-15,49.69-19.35,79.08a.78.78,0,0,1-.88.66.78.78,0,0,1-.66-.88h0c4.29-29.3,8.59-58.79,19.52-79.58h0C5.4,325.43,23,313.39,36.73,304.41h0c13.76-9,23.9-15,34.21-20h0c10.31-5,20.79-9,31.23-12.93a.78.78,0,0,1,.55,1.45Z" transform="translate(25.07 30.27)"/></g><g id="layer7"><path class="cls-34" d="M109.63,139.89l-.62-1.77q-4.31-12.37-5.19-17.77-.84-2.62-2.35-23.54L98.24,78.29A32,32,0,0,1,98,72a37.93,37.93,0,0,1,1.46-7.77,17.83,17.83,0,0,1,.1-4.54c.24-2.09,1.63-4.59,4.15-7.48Q106.31,49.05,117,40q5.51-9.75,13-14.67,6.39-3.87,18.64-7.56,14.75-3.54,22.53-4.91,17.39-3.51,31.57-.63,12.73,2.08,29.68,16l11.1,9.58-4-1.34q7.91,6.8,10.9,14.52,5.19,8.3-2.55,59.45-6,3.87-8.48,16.5-4.81-33.83-6.65-54.36a41.11,41.11,0,0,0-1.66-7.49q-5.59-14.93-20.35-26.86A16.39,16.39,0,0,0,201,35L183.83,37l-31.51,1.14Q133,39.8,126.19,44.94a27.81,27.81,0,0,0-9.71,11.13q-9.26,20.5-9.38,26.25a62.75,62.75,0,0,0-.53,12.34q-.33,1.43,3.18,32.19a73.18,73.18,0,0,1-.12,13" transform="translate(25.07 30.27)"/><path class="cls-42" d="M208.57,14.31A58.93,58.93,0,0,0,192,13q-5.1.27-10.21.81a43.23,43.23,0,0,1,6.36,1.09A57,57,0,0,1,194.74,17q-16.28-3.32-24.67-1.7-5.82.72-15.19,2.85a45.92,45.92,0,0,1,20.31.81l.67.16A42.36,42.36,0,0,0,161.93,18a53,53,0,0,0-11.61,3.44q-10,1.84-13,3.16-9.95,3.54-17.69,16.88l-1,1.48q7.26-8.25,12.92-10.88,5.3-2.88,19.92-5.66h0q-6.87,3.09-16.1,10.66,15.08-5.68,22.26-7.11,7.23-1.68,21-2.23h0q-10.3,1.07-23.32,6.75a57,57,0,0,1,13.75-2.39q-.07-.24,18.91.18,17.28-.57,18.25-.34s.05,0,.05,0a28.92,28.92,0,0,1,6.16.88,55.59,55.59,0,0,1,11.84,4.6,14,14,0,0,0-4.6,0q-2,.26-7.82,1.67l-1.44.35,2,.16-.07-.06h0a.27.27,0,0,1,.08.07A58.53,58.53,0,0,1,221.06,41a19.45,19.45,0,0,1,5.19,1.94q4.67,2.23,11.55,11.14a33.8,33.8,0,0,0-12.55-6c-.5-.14-1.08-.3-1.73-.46-1-.25-2.26-.52-3.67-.81a58,58,0,0,1,11.34,18.36,41.11,41.11,0,0,1,1.66,7.49q1.83,20.54,6.65,54.36,2.52-12.63,8.48-16.5c.24-1.54.46-3,.67-4.53l-4.23-18.87q-.28-15.24-2.57-24-2.29-9.13-12-20.42h0Q244.55,56,249,63.53a52.11,52.11,0,0,1,3.52,6.69q.66-15-1.95-19.21a30.17,30.17,0,0,0-2.06-4.25,18.53,18.53,0,0,0-2.93-3q-3.76-4.59-31.48-17.51c2.93.55,5.69,1.15,8.28,1.78a85.46,85.46,0,0,1,16.3,5.54l-6.16-5.32,6.16,5.32h0c1.3.62,2.52,1.27,3.64,1.93Q228,23.18,217.51,17.77h0q2.06,1.15,4.2,2.53h0q-2.16-1.39-4.24-2.55c-.9-.47-1.79-.9-2.65-1.28A33.06,33.06,0,0,0,208.57,14.31Z" transform="translate(25.07 30.27)"/><path class="cls-42" d="M154.71,18.17h0c-.48.1-1,.21-1.42.33l1.43-.33Z" transform="translate(25.07 30.27)"/><path class="cls-42" d="M112.74,43.66a88.14,88.14,0,0,0-9,8.57,17.63,17.63,0,0,0-3.95,6.45,39.09,39.09,0,0,1,8.36-4.13h0q-5.43,4.91-6.59,7.5a14.27,14.27,0,0,0-1.43,7.62,64.72,64.72,0,0,0,.73,6.47,9.32,9.32,0,0,1,1.34-5.46c.72-1.24,2.69-3.13,5.9-5.69h0a50.33,50.33,0,0,0-3.9,9.61,26.36,26.36,0,0,0-.81,4.75,27.15,27.15,0,0,0-.05,3.51q0,5,3.45,15.9a27,27,0,0,1-.2-4.1,62.75,62.75,0,0,1,.53-12.34q.11-5.35,8.16-23.52h0l-4.37,1.75,5.66-9.93q-1.68-5.43-3.8-7Z" transform="translate(25.07 30.27)"/><path class="cls-43" d="M192.23,21.5l-1.87-.4a75.79,75.79,0,0,0-11.14-1.75c-1.24-.07-2.47-.09-3.7,0l-1.85.14a27.52,27.52,0,0,0-3.68.64,30.14,30.14,0,0,0-3.67,1.19,43.94,43.94,0,0,0-5.48,2.65,130.62,130.62,0,0,0-12.71,8.57q20.13-7.35,27.21-9a65.32,65.32,0,0,1,16.89-2" transform="translate(25.07 30.27)"/><path class="cls-43" d="M213.34,29.91l-1-.49c-2.07-1-4.17-1.93-6.28-2.78a44.41,44.41,0,0,0-4.3-1.46A28.81,28.81,0,0,0,193.81,24a30,30,0,0,0-3.62.25l-1.85.28c-1.25.23-2.51.51-3.8.84a133.15,133.15,0,0,0-13.78,4.68q18.3-1.29,25.19-1.26a139.14,139.14,0,0,1,17.39,1.08" transform="translate(25.07 30.27)"/><path class="cls-43" d="M249.59,47.73l-1.07-.94a53.16,53.16,0,0,0-6.73-5.19c-.8-.49-1.63-.94-2.48-1.35L238,39.67l-1.37-.49-1.42-.41-.25-.06-1.51-.29-1.58-.2-1.63-.12c-1.1-.05-2.24-.05-3.4,0A119.5,119.5,0,0,0,214,39.46l35.59,8.27" transform="translate(25.07 30.27)"/></g></svg>