<svg id="Layer_1" data-name="Layer 1" xmlns="http://www.w3.org/2000/svg" xmlns:xlink="http://www.w3.org/1999/xlink" viewBox="0 0 365.05 425.36"><defs><style>.cls-1{fill:#324b69;}.cls-2{fill:#24384f;}.cls-3{fill:#1b2b3e;}.cls-4{fill:#eec29c;}.cls-5{fill:url(#linear-gradient);}.cls-6{fill:#daa77c;}.cls-7{fill:url(#linear-gradient-2);}.cls-8{fill:url(#linear-gradient-3);}.cls-9{fill:url(#linear-gradient-4);}.cls-10{fill:url(#linear-gradient-5);}.cls-11{fill:url(#linear-gradient-6);}.cls-12{fill:url(#linear-gradient-7);}.cls-13{fill:url(#linear-gradient-8);}.cls-14{fill:url(#linear-gradient-9);}.cls-15{fill:url(#linear-gradient-10);}.cls-16{fill:url(#linear-gradient-11);}.cls-17{fill:url(#linear-gradient-12);}.cls-18{fill:url(#linear-gradient-13);}.cls-19{fill:#b9885e;}.cls-20{fill:url(#linear-gradient-14);}.cls-21{fill:url(#linear-gradient-15);}.cls-22{fill:url(#linear-gradient-16);}.cls-23{fill:#fbd7b7;}.cls-24{fill:url(#linear-gradient-17);}.cls-25{fill:url(#linear-gradient-18);}.cls-26{fill:url(#linear-gradient-19);}.cls-27{fill:url(#linear-gradient-20);}.cls-28{fill:url(#linear-gradient-21);}.cls-29{fill:url(#linear-gradient-22);}.cls-30{fill:url(#linear-gradient-23);}.cls-31{fill:url(#linear-gradient-24);}.cls-32{fill:#e8e8e8;}.cls-33{fill:#c4c4c4;}.cls-34{fill:#282828;}.cls-35{fill:#fff;}.cls-36{fill:#c9796f;}.cls-37{fill:#a96054;}.cls-38{fill:#84463c;}.cls-39{fill:#ee9a8c;}.cls-40{fill:url(#linear-gradient-25);}.cls-41{fill:url(#linear-gradient-26);}.cls-42{fill:#3b3b3b;}.cls-43{fill:#5d5d5d;}</style><linearGradient id="linear-gradient" x1="167.9" y1="487.45" x2="165.59" y2="536.95" gradientTransform="matrix(0.97, 0.24, 0.24, -0.97, -97.79, 573.4)" gradientUnits="userSpaceOnUse"><stop offset="0" stop-color="#daa77c" stop-opacity="0"/><stop offset="1" stop-color="#daa77c"/></linearGradient><linearGradient id="linear-gradient-2" x1="127.2" y1="461.16" x2="125.93" y2="504.41" xlink:href="#linear-gradient"/><linearGradient id="linear-gradient-3" x1="135.87" y1="507.38" x2="135" y2="466.18" xlink:href="#linear-gradient"/><linearGradient id="linear-gradient-4" x1="144.64" y1="499.44" x2="162.44" y2="462.36" xlink:href="#linear-gradient"/><linearGradient id="linear-gradient-5" x1="201.14" y1="439.11" x2="138.54" y2="476.14" xlink:href="#linear-gradient"/><linearGradient id="linear-gradient-6" x1="167.86" y1="510.53" x2="188.42" y2="474.57" xlink:href="#linear-gradient"/><linearGradient id="linear-gradient-7" x1="174.5" y1="551.34" x2="142.01" y2="428.85" xlink:href="#linear-gradient"/><linearGradient id="linear-gradient-8" x1="155.99" y1="466.42" x2="196.05" y2="389.27" xlink:href="#linear-gradient"/><linearGradient id="linear-gradient-9" x1="187.08" y1="474.57" x2="177.6" y2="421.85" xlink:href="#linear-gradient"/><linearGradient id="linear-gradient-10" x1="171.06" y1="444.69" x2="173" y2="409.08" gradientTransform="matrix(0.97, 0.24, 0.24, -0.97, -97.79, 573.4)" gradientUnits="userSpaceOnUse"><stop offset="0" stop-color="#b9885e" stop-opacity="0"/><stop offset="1" stop-color="#b9885e"/></linearGradient><linearGradient id="linear-gradient-11" x1="206.84" y1="415.45" x2="127.56" y2="419.63" xlink:href="#linear-gradient-10"/><linearGradient id="linear-gradient-12" x1="182.94" y1="381.77" x2="134.54" y2="423.7" xlink:href="#linear-gradient-10"/><linearGradient id="linear-gradient-13" x1="130.82" y1="489.23" x2="125.55" y2="508.88" xlink:href="#linear-gradient-10"/><linearGradient id="linear-gradient-14" x1="107.69" y1="485.67" x2="115.82" y2="514.53" xlink:href="#linear-gradient-10"/><linearGradient id="linear-gradient-15" x1="141.64" y1="499.91" x2="158.36" y2="454.87" xlink:href="#linear-gradient-10"/><linearGradient id="linear-gradient-16" x1="176.4" y1="471.75" x2="204.82" y2="477.81" xlink:href="#linear-gradient-10"/><linearGradient id="linear-gradient-17" x1="135.29" y1="547.73" x2="161.7" y2="462.37" gradientTransform="matrix(0.97, 0.24, 0.24, -0.97, -97.79, 573.4)" gradientUnits="userSpaceOnUse"><stop offset="0" stop-color="#fbd7b7" stop-opacity="0"/><stop offset="1" stop-color="#fbd7b7"/></linearGradient><linearGradient id="linear-gradient-18" x1="111.36" y1="552.57" x2="167.44" y2="496.48" xlink:href="#linear-gradient-17"/><linearGradient id="linear-gradient-19" x1="98.43" y1="597.73" x2="172.64" y2="486.72" xlink:href="#linear-gradient-17"/><linearGradient id="linear-gradient-20" x1="187.16" y1="435.44" x2="187.16" y2="559.24" xlink:href="#linear-gradient-17"/><linearGradient id="linear-gradient-21" x1="95.92" y1="447.8" x2="146.92" y2="502.28" xlink:href="#linear-gradient-17"/><linearGradient id="linear-gradient-22" x1="151.39" y1="422.15" x2="126.75" y2="451.36" xlink:href="#linear-gradient-17"/><linearGradient id="linear-gradient-23" x1="149.43" y1="473.44" x2="227.24" y2="395.62" xlink:href="#linear-gradient-17"/><linearGradient id="linear-gradient-24" x1="202.32" y1="444.24" x2="165.69" y2="461.79" xlink:href="#linear-gradient-17"/><linearGradient id="linear-gradient-25" x1="166.53" y1="528.89" x2="195.33" y2="530.77" gradientTransform="matrix(0.97, 0.24, 0.24, -0.97, -97.79, 573.4)" gradientUnits="userSpaceOnUse"><stop offset="0" stop-color="#282828"/><stop offset="1" stop-color="#eec29c"/></linearGradient><linearGradient id="linear-gradient-26" x1="120.94" y1="510.7" x2="105.47" y2="492.72" gradientTransform="matrix(0.97, 0.24, 0.24, -0.97, -97.79, 573.4)" gradientUnits="userSpaceOnUse"><stop offset="0" stop-color="#282828"/><stop offset="1" stop-color="#daa77c"/></linearGradient></defs><g id="layer1"><path class="cls-1" d="M252.67,216.67l-1.17-.25q-7.69-1.62-45.93-2.94-4.66,6.12-20.36,7.66-12.44-.78-12.73-9l-22.12-.91q-18.62,3.54-20.16,5.71-3.22,2-10.71,17l-5.19,5.22a49.27,49.27,0,0,0-3,6.33q-16.35,3.64-40.12,17.81Q32,287.51,23.76,299.59,10.85,315.19,2.6,364.65l361.7,34.6q1-49.29-3.86-64.75-4.62-22.59-14.15-39.9-1.41-3.75-15.15-12.8l-54.8-31.9q-7.5-6.19-10.89-11.24-2.52-3.63-8.83-18.82C255.2,217.64,253.89,216.59,252.67,216.67Z" transform="translate(0 18.6)"/><path class="cls-2" d="M249.66,216.11q-5.46-.81-16.71-1.42l-.95-.06,12.64,22.29q5.72-7.6,7-11.45a12,12,0,0,0,.71-3V221l-.27-1.37-.56-1.31-.88-1.24-1-1Z" transform="translate(0 18.6)"/><path class="cls-2" d="M279.36,252.13a15,15,0,0,1-.86,6q-2.08,7.34-21.72,25.85-10.09,6.17-18.42,6.09a58.76,58.76,0,0,1-8.65-.55q-1.67,0-20.29-3.64a27,27,0,0,0-6.41-.36l-5.3,10.6q-24.9-.63-33.87,7.29-9.72,7.21-14.44,25.63,4.9-10.49,12.71-15.65,10.13-6,34.06-9.45l15.74-12.44q4.64,1.37,8.84,2.4,15.51,3.81,25.07,3.1,12.19-.36,25-9.8c1.15-.63,3.69-3.07,7.59-7.3a35.51,35.51,0,0,0,3.68-5.32,21.06,21.06,0,0,0,3-10.69c.31-2.58-.47-5.88-2.31-9.91l-3.42-1.87Z" transform="translate(0 18.6)"/><path class="cls-2" d="M260.24,282.46l1,2.38q7,16.67,9.23,24.2,1.33,3.79,6,22.59l2.12,7.07c.51,1.52,1.06,3,1.65,4.41q6,13.45,6.35,14.71a56.35,56.35,0,0,1,2.14,7.08,80.1,80.1,0,0,1,1.63,17.56q.06,8.13-1,24.3,4.59-25.78,2.5-38.72l-.51-3.24c-.38-2.16-.85-4.33-1.39-6.51l-6.81-24.2c-1.54-6.29-2.4-10.16-2.58-11.58l-1.87-12.17-2.83-25q-.15-1.81-1.13-6.77-1.15-6.14-4.46-7.62l-4.38,6.35-5.62,5.13" transform="translate(0 18.6)"/><path class="cls-2" d="M149.82,211.32q-16.41,3-18.87,5.32-3,.39-11.46,17.3l-4.95,4.87a38.69,38.69,0,0,0-3.25,6.68A145,145,0,0,0,71.17,263.3q-36,22.31-44.11,32.92Q13.73,307.45,5,351.67c.79-.81,1.56-1.56,2.3-2.23q7.53-7,9.47-8.22l29.8-20.61q9.07-6.89,10.55-8.51,6.15-4.85,23.94-27.71a12.33,12.33,0,0,1,3.56-3,2.51,2.51,0,0,1,1.42-.1,2.34,2.34,0,0,1,1.29.87q5.92,11.18,7.27,11.52h0a23.26,23.26,0,0,0,7.36,4.44q-.41.51,5.4,1.93,11.39,2.79,46.66,9.15l12.4-10.8a24.35,24.35,0,0,0-5-2.91,290.5,290.5,0,0,1-29.23-11.65l3.3-5.46-4.12-.85q-3.44-12-4.84-18.35-4.08-19.15-1-24.84a1.39,1.39,0,0,1,1.52-.7c1,.26,2.28,1.67,3.76,4.26q4,6.76,12.85,29.31l1.59,4,4.6-59.93Z" transform="translate(0 18.6)"/><path class="cls-3" d="M122.14,228.77c-.83,1.57-1.71,3.3-2.65,5.17l-4.95,4.87a38.69,38.69,0,0,0-3.25,6.68h-.06l-1.69.4A361.26,361.26,0,0,1,118,283.55l13.42-6.09q-8.57-29.77-9.26-45.69c0-1,0-2,0-3Z" transform="translate(0 18.6)"/><path class="cls-3" d="M163.7,211.77l-13.34-.55-.53.1a139.09,139.09,0,0,0-14,3.15,32.08,32.08,0,0,0-3.58,1.2,11.81,11.81,0,0,1-.13,1.25q-2.67,13.58-2.34,15.63a18.43,18.43,0,0,0,1.89,9.25,23.1,23.1,0,0,0,6.56,7.35,87.34,87.34,0,0,0,15.28,8.73l2.81,1.34Z" transform="translate(0 18.6)"/><path class="cls-3" d="M94.74,284l.69.56a22.48,22.48,0,0,0,9.5,5,28.72,28.72,0,0,0,5,.67q10.44.38,11.46.59c1.13.11,2.24.26,3.32.46a24.74,24.74,0,0,1,3.72,1L130,293a26.73,26.73,0,0,1,3,1.6q1.63.92,8,5.66a28,28,0,0,0,2.48,1.55,14.44,14.44,0,0,0,4.55,1.58q4.92.74,12.29-1.24l6.94-3.41a91.39,91.39,0,0,0-9.37-4.84c-1.44-.62-3-1.24-4.7-1.84l-10.08-3.41c-1.83-.65-2.88-1-3.12-1.16a39.39,39.39,0,0,1-7.25-3.79l3.43-5.88q-6.42,0-8.49.79a8.9,8.9,0,0,0-2,.91l-4.12,3.08a9.39,9.39,0,0,1-3.23,1.24,20.53,20.53,0,0,1-4.55.21q-.7.06-8.91-.81c-.45-.06-1.5-.11-3.14-.15a24.55,24.55,0,0,0-7,1" transform="translate(0 18.6)"/><path class="cls-3" d="M229.05,230.17l.61.79a39.06,39.06,0,0,0,3.82,4.35,13,13,0,0,0,2.81,2.05,7.82,7.82,0,0,0,3.25.89,7.11,7.11,0,0,0,2.22-.23,7.81,7.81,0,0,0,1.48-.55,9.56,9.56,0,0,0,2.14-1.47,12.45,12.45,0,0,0,1.34-1.44,21.93,21.93,0,0,0,2.61-4.43,37.27,37.27,0,0,0,2.46-7.26c.48-2.07.49-3.44,0-4.09s-1.28-.27-2.64.71a20,20,0,0,0-1.85,1.51q-7.12,6.67-7.28,6.64a19.61,19.61,0,0,1-3.38,2.32,9,9,0,0,1-7.62.21" transform="translate(0 18.6)"/><path class="cls-2" d="M133.5,364.16,145.09,367l11.58,2.81-2.91,1.63-21-5.46c.24-.6.49-1.19.74-1.79" transform="translate(0 18.6)"/><path class="cls-2" d="M132.69,365.67l-1.05,5.48,20.8,6.25,28.25-71.69L152.56,374l-18.72-4.87-1.15-3.5" transform="translate(0 18.6)"/></g><g id="layer2"><path class="cls-4" d="M211.64,32.7l-1-.21q-22-4.28-78.84,9Q118,46.93,110,80.25q2.89,20.76,3.89,35.49-6.78-2-7.85-.94-.76.57,1.52,4.55a32.73,32.73,0,0,0,.7,7.86L116.62,145a55.7,55.7,0,0,1,1.81,8.5,10.23,10.23,0,0,0-.91,5.43q.18,2,4.59,6.57A28.16,28.16,0,0,0,125,177.09q3.14,6.54,15,22.72,2.86,24.58,1.14,30.1-1.35,6.33-9,7a21.1,21.1,0,0,0,.22,11.66q2,6.91,12.12,25a76.84,76.84,0,0,0,20.42,19.62,15.81,15.81,0,0,1,2.94,4.45q.24-1.55,28.38-16.24,3.83-4.87,4.74-5.08a20.41,20.41,0,0,0,11.6-5.5q7.23-6.19,34.76-37-12.3-10.5-17.08-22-4.08-9.93-3.47-27l.1-5.7q4-10.65,4.36-14.27a36.68,36.68,0,0,0,.64-9.4q6.38-3.36,6.59-5.63l1.92-12.77,7.9-21.88a22.42,22.42,0,0,0,.69-9.32q-.81-9.49-12.82-2.12l1-29.55q-.91-8.72-5.2-22a41.5,41.5,0,0,0-6.21-11.53Q210.66,33.4,211.64,32.7Z" transform="translate(0 18.6)"/><path class="cls-5" d="M187.74,130.91,187,130a37.24,37.24,0,0,1-5.22-7.8,5.5,5.5,0,0,1,.24-5.33,18.62,18.62,0,0,1,1.33-2l7-9.53a28.68,28.68,0,0,1,4.12-4.39q3.3-3,9.52-3a26.91,26.91,0,0,0-17.65.13,23.91,23.91,0,0,0-7.61,4,17.88,17.88,0,0,0-3,3.1,17.18,17.18,0,0,0-1.53,2.38,14.69,14.69,0,0,0-1,2.55l-.32,1.31a10.83,10.83,0,0,0-.17,2.66,10.44,10.44,0,0,0,1.77,5.16q1.95,3.81,13.31,11.75" transform="translate(0 18.6)"/><path class="cls-6" d="M184.45,115.38l-8,.76q3.81-6.39,6.61-8.26a16.37,16.37,0,0,1,3.94-2.2,21.34,21.34,0,0,1,3.46-1,22.39,22.39,0,0,1,2.46-.34,21,21,0,0,1,2.51-.06l1.25.09a17.29,17.29,0,0,1,4.48,1,24.41,24.41,0,0,1,4.53,2.39q1.28.78,5.55,4a18.3,18.3,0,0,0,2.29,1.45,11.14,11.14,0,0,0,5.19,1.34,37.37,37.37,0,0,1-5.89-.1,14,14,0,0,1-3.88-1,13.08,13.08,0,0,1-3.07-1.88c-.58-.43-2.2-1.86-4.87-4.31q-.8-.67-1.59-1.23a7.15,7.15,0,0,0-4.06-1.42q-7.32.27-10.89,10.68" transform="translate(0 18.6)"/><path class="cls-6" d="M182.06,120.59l.43.11a61.29,61.29,0,0,0,8.15,1.71,20.63,20.63,0,0,0,5.77,0,16.17,16.17,0,0,0,2.24-.53,22.72,22.72,0,0,0,3.29-1.3,62.59,62.59,0,0,0,7.42-4.42q-6.59,2.55-10,2.67a22.79,22.79,0,0,1-4.35-.16q-2.21-.25-6.22-1.15l-6.69,3.11" transform="translate(0 18.6)"/><path class="cls-6" d="M187.31,114.2l1.13.18q3.39.57,6.6.89c1.76.12,2.79.17,3.11.15.67,0,1.32,0,2-.07s1.24-.12,1.84-.22a25.35,25.35,0,0,0,2.6-.6,47.42,47.42,0,0,0,5.57-2.09l-11.89-.77c.34-.21.38-.31.11-.3s-3.93.88-11,2.83" transform="translate(0 18.6)"/><path class="cls-7" d="M147.2,144.64l.61-1.68q1.24-3.61,5.37-14.14a31.55,31.55,0,0,0,1.09-3.57,12.73,12.73,0,0,0,.4-4.31l-.17-.92a5.43,5.43,0,0,0-.74-1.62,8.1,8.1,0,0,0-1.87-2,64.55,64.55,0,0,0-5.95-3.89,70.57,70.57,0,0,1-5.92-5,12,12,0,0,0-2.91-1.76q-2.81-1.42-10.42.39,13.32-3.18,21.82-2c5,.83,8.34,3.09,9.9,6.78q1.78,3.33,2.51,10.25.74,7.33-.75,11.5-.57,2.2-4,5.55a67.29,67.29,0,0,1-9,6.39" transform="translate(0 18.6)"/><path class="cls-6" d="M119.57,124.53l12.06-4.45q6.83-7.93,10.71-8.74a11.24,11.24,0,0,1,5.26-.1,40.49,40.49,0,0,1,7.09,2.27,22.84,22.84,0,0,0-4.26-6.19,12.11,12.11,0,0,0-1.78-1.43l-1-.62a14.08,14.08,0,0,0-2.45-1,21.36,21.36,0,0,0-4-.82,27.32,27.32,0,0,0-3.17-.17,27,27,0,0,0-4.86.45,23,23,0,0,0-3.07.82,13.09,13.09,0,0,0-5.07,3.07l-1,1.13a14.6,14.6,0,0,0-1.54,2.6,22.22,22.22,0,0,0-1.53,4.56,73,73,0,0,0-1.34,8.63" transform="translate(0 18.6)"/><path class="cls-6" d="M150.57,119.74l-1.06.28a63.33,63.33,0,0,1-11.27,2.27c-.63,0-1.25.08-1.87.08-.31,0-1.21,0-2.68-.1s-3.45-.38-6-.81L139,116.78l11.59,3" transform="translate(0 18.6)"/><path class="cls-6" d="M128.25,126l.51.13a54.11,54.11,0,0,0,7.7,1.64,20,20,0,0,0,5.07,0,17.74,17.74,0,0,0,2.14-.46,23.37,23.37,0,0,0,3.18-1.13,65.55,65.55,0,0,0,7.29-3.89L146,123c-2.79,1.06-4.89,1.82-6.32,2.27a26.73,26.73,0,0,1-4.75,1.14,16.56,16.56,0,0,1-3.24.08,32.72,32.72,0,0,1-3.42-.49" transform="translate(0 18.6)"/><path class="cls-8" d="M137.92,170.42l-.12-.63a11.92,11.92,0,0,1-.26-3.88,8.05,8.05,0,0,1,.92-2.83,16.23,16.23,0,0,1,2.35-3.15c.49-.54,1-1.09,1.57-1.64,3.66-3.47,5.5-5.24,5.51-5.33a17,17,0,0,0,1.89-2.33,11.36,11.36,0,0,0,1.54-3.55,14.86,14.86,0,0,1-.28-2.72,5.59,5.59,0,0,1,.32-1.79,5.7,5.7,0,0,1,1.06-1.75,29.76,29.76,0,0,1,2.07-2.16l.37-.45,0-.15c-.31-.32-1.36,0-3.15.88a14.23,14.23,0,0,0-3.84,3,25.55,25.55,0,0,0-2.35,3.11l-3.37,5.42-1.2,1.82-3,4.32c-.37.55-.71,1.1-1,1.65l-.43.81a8.16,8.16,0,0,0-1,4.68,18.33,18.33,0,0,0,2.43,6.68" transform="translate(0 18.6)"/><path class="cls-9" d="M178.55,148.94l-.88.44a28.68,28.68,0,0,1-5.18,2.18,9.06,9.06,0,0,1-3.31.36,7.14,7.14,0,0,1-3.19-1.15,9.29,9.29,0,0,1-1.39-1.06l-.65-.63a13.67,13.67,0,0,1-1.18-1.42,16,16,0,0,1-3-8.8,22.4,22.4,0,0,1,.13-3.75c0-.37.16-1.24.41-2.61l1.09-4.75c.07-.45,0-.63-.14-.53q-1.25,1.14-4,6.44a29.27,29.27,0,0,0-2.34,6,9.41,9.41,0,0,0-.24,3.8,6.64,6.64,0,0,0,.42,1.56l.33.71a8.77,8.77,0,0,0,.87,1.34q5.18,6.09,10.79,6.88a10,10,0,0,0,5.15-1.09,40.55,40.55,0,0,0,6.26-3.92" transform="translate(0 18.6)"/><path class="cls-10" d="M136.94,168.71l.15-.41a5.76,5.76,0,0,1,2.71-3.68l1.45-.49a53.55,53.55,0,0,0,6.39-1.37q8.28-3.13,9.43-3.38a19.19,19.19,0,0,1,3.85-.7c.3-.09,2.52-.13,6.64-.11a26,26,0,0,0,3-.24q.41.06,7.48-1.63a25.42,25.42,0,0,1,3.32-.51,16.76,16.76,0,0,1,6.37.66c.27.06,1,.3,2.25.73,4.06,1.66,6.2,2.5,6.44,2.52s.88.26,1.48.41l3.26.66,1.2.35a16.51,16.51,0,0,1,3.3,1.72q-5.17-8.48-9.5-11.85-4-3.18-10.35-2.69a23.09,23.09,0,0,0-5.1,1.1l-8.41,3.25a11.1,11.1,0,0,1-2.53.62,5.91,5.91,0,0,1-2.13-.14l-1.32-.45a24.92,24.92,0,0,0-3.54-1.56,10.39,10.39,0,0,0-2.84-.44,24.87,24.87,0,0,0-9.64,1.88q-5,2.47-10.51,4.51a9.06,9.06,0,0,0-3.1,2.07c-1.49,1.88-1.41,4.94.27,9.17" transform="translate(0 18.6)"/><path class="cls-11" d="M186.51,145.68l.14-.35A5.24,5.24,0,0,0,187,142a8.47,8.47,0,0,0-.94-2.32,40.1,40.1,0,0,1-2.49-4.21q-.43-.88.45-.69a63.89,63.89,0,0,1,12.17,8.32,39.79,39.79,0,0,1,8.15,8.52,15.48,15.48,0,0,1,2,4.42,13.48,13.48,0,0,1,.46,3.55q.27,3.6-2.86,12.94a57,57,0,0,0,1-6.5,20.59,20.59,0,0,0-.06-3.88,15.76,15.76,0,0,0-2.93-7.64,32.48,32.48,0,0,0-5.14-5.65,30.45,30.45,0,0,0-5.1-3.73,5.62,5.62,0,0,0-3.19-1,2.85,2.85,0,0,0-2,1.47" transform="translate(0 18.6)"/><path class="cls-12" d="M232.33,98.79l-1,1.79a53.08,53.08,0,0,0-6.95,19.07,64.76,64.76,0,0,0-.64,9q1.1,27.44-.12,33.64a53.09,53.09,0,0,1-1.39,7.27q-.19,1.94-3.94,9.8-5.53,10.8-19.62,22.18-12.58,10.08-22.68,11.1a22.31,22.31,0,0,1-8-.44,23.74,23.74,0,0,1-10.33-5.72q-10.09-8.68-22.41-29.06a53.06,53.06,0,0,1-5-12.43l-7-31.73-2.56-9.14-.78-2.77h0L113.67,99c-.42.41-.83.83-1.22,1.24q1.1,9.78,1.39,15.52c-.76-.22-1.48-.4-2.13-.56-3.87-1-5.79-1-5.79-.12q-.49.64,1.59,4.29a32.82,32.82,0,0,0,.7,7.86,23.78,23.78,0,0,0,1.79,4.86q6.78,12.1,6.68,13.3a47,47,0,0,1,1.75,8.1,10.09,10.09,0,0,0-.91,5.43q.67,2.74,4.59,6.57a27.48,27.48,0,0,0,2.21,10.13q2.3,6,15.66,24.21.93,8,1.38,13.88a99.05,99.05,0,0,0,17.32,6q3.81.94,7.64,1.54a66.07,66.07,0,0,0,12.86.75l5.95-.63a43.23,43.23,0,0,0,22.32-11.23A73.39,73.39,0,0,0,225,183q4.35-10,6-25.64Q231.18,122.41,232.33,98.79Z" transform="translate(0 18.6)"/><path class="cls-6" d="M180,164.43l.24.08a18.64,18.64,0,0,0,4.13,1.13,11.26,11.26,0,0,0,3.17,0,13.6,13.6,0,0,0,2.79-.72q1-.34,6-2.5c.63-.25,1.23-.45,1.79-.61a6.44,6.44,0,0,1,1.51-.24l.62.07.18.06.18.07.44.35.33.49.22.62a6.11,6.11,0,0,1,.16,1.46c-.18,2.51-.53,3.94-1.05,4.28a.41.41,0,0,1-.31-.31l-.66-2a6.47,6.47,0,0,0-.38-.84,2.1,2.1,0,0,0-.49-.62c-.28-.16-.41-.23-.4-.2l-.38,0a2.89,2.89,0,0,0-.92.28l-3,1.71a12.63,12.63,0,0,1-1.45.66,7.11,7.11,0,0,1-3,.49,13,13,0,0,1-3.9-.89,52.3,52.3,0,0,1-5.87-2.77" transform="translate(0 18.6)"/><path class="cls-6" d="M152.67,170.69,172.46,167a4,4,0,0,1-1.06,1.67,1.68,1.68,0,0,1-1.73.11,6.69,6.69,0,0,1-1.45-.81l-4.91-3.73c-.62-.45-1.26-.88-1.9-1.27a15,15,0,0,0-1.93-1,9.41,9.41,0,0,0-2.44-.7,11.83,11.83,0,0,0-3.47.09c-.6.08-2.21.45-4.84,1.09a15,15,0,0,1-1.56.23c-.52,0-1,.06-1.52.07h-2a8.27,8.27,0,0,0-1,.06,1.31,1.31,0,0,0-1.2.67c-.11,0-.09.45.07,1.23a10.33,10.33,0,0,0,3.13,4.33,7.49,7.49,0,0,0,3.39,1.57,19,19,0,0,0,4.67.15" transform="translate(0 18.6)"/><path class="cls-13" d="M153.78,183.37l1.4.81c3.27,1.88,5.57,3.16,6.92,3.82,2.25,1.09,3.59,1.7,4,1.83a20.46,20.46,0,0,0,7.65,1.76l1.42-.09,1.37-.25,1.32-.4a15.92,15.92,0,0,0,2.52-1.17,41.93,41.93,0,0,0,8.05-6.52q-6.58,2-10.23,2.74t-4.35.66c-1,.09-1.94.15-2.9.15a37.05,37.05,0,0,1-7.65-.82q-3.81-.78-9.53-2.52" transform="translate(0 18.6)"/><path class="cls-14" d="M211.19,174.81l-1,2.84q-5.49,15.79-11.1,23-4.2,5-5.34,5.52a31.19,31.19,0,0,1-8.61,4.85,27.36,27.36,0,0,1-18.17.66,24.42,24.42,0,0,1-3.69-1.65,31.42,31.42,0,0,1-5-3.46,91.52,91.52,0,0,1-9-9q3.17,8.12,6.37,11.46a16.85,16.85,0,0,0,2.84,2.46l1.7,1a17.56,17.56,0,0,0,4.05,1.5,25.39,25.39,0,0,0,4.77.68l3.05,0a52.47,52.47,0,0,0,6.64-.58,64.85,64.85,0,0,0,13.73-3.63,39,39,0,0,0,11.25-6.41l2-2a20.38,20.38,0,0,0,3-4.3q4.05-7.94,2.62-23.12" transform="translate(0 18.6)"/><path class="cls-6" d="M140.11,201q2.7,23.57,1,28.94-1.35,6.33-9,7a21.1,21.1,0,0,0,.22,11.66q1.68,5.81,9.08,19.48a27.52,27.52,0,0,0,6.9,3.45c.92.31,1.89.6,2.92.85q9.21,2.25,24.13,1.08-8.19-7.8-9.77-12.94a8.22,8.22,0,0,1-.24-3.38,47,47,0,0,1,1.63-6.68,11,11,0,0,0,.25-3.43c.1-.37-.28-1.56-1.13-3.56l-3.34-6.13c-.76-2-1.06-3.26-.89-3.65A6.37,6.37,0,0,1,164.4,229a92.19,92.19,0,0,1,8.65-6.48,12.32,12.32,0,0,0,2.12-2.07,3.55,3.55,0,0,0,.86-2l-.2-1c-.62-1.35-2.13-2.69-4.55-4a106.5,106.5,0,0,0-13.95-6l-2.68-1L140.12,201Z" transform="translate(0 18.6)"/><path class="cls-6" d="M117,127.14l12.29-24.42q-3.12-18.63-3.36-27.92-.12-3.75.1-7.24l.33-3.42a39.34,39.34,0,0,1,1.35-6.36,32.69,32.69,0,0,1,2.35-5.66l1.51-2.59a41.61,41.61,0,0,1,3.6-4.79Q140,39,151.46,30.59a153.44,153.44,0,0,0-22.86,13.2,55.77,55.77,0,0,0-6.28,5.43l-2.72,3-2.4,3.28-2,3.56L113.51,63l-1.22,4.19-.83,4.48L111,76.39a92.19,92.19,0,0,0,0,10.25q.57,13.24,6,40.5" transform="translate(0 18.6)"/><path class="cls-6" d="M318.22,21.42h0" transform="translate(0 18.6)"/><path class="cls-6" d="M227.87,203.52a225,225,0,0,0,.23,24.13q1.11,10.36,1.72,11.59a41.56,41.56,0,0,0,3.71,9.83q6.1-6.69,13.8-15.29-12.3-10.5-17.08-22a42,42,0,0,1-2.37-8.28Z" transform="translate(0 18.6)"/><path class="cls-6" d="M231.86,123.63l.76-1.39q7.83-14.47,10.27-17.41c.9-1.15,1.68-1.77,2.33-1.85a1.07,1.07,0,0,1,.89.39,3.46,3.46,0,0,1,.51.85,12.54,12.54,0,0,1,.75,4.47c0,.6,0,1.22-.07,1.86l-.1,1c-.08.63-.2,1.27-.34,1.91q-.06.47-.78,2.94L244,122.78c-.24.78-.48,1.58-.71,2.41s-.89,3.36-1.94,7.49l-.62,2.26c-.2.71-.41,1.37-.61,2a17.32,17.32,0,0,1-.88,2.1c-.73,1.37-1.46,2.09-2.21,2.16s-.83-.67-.59-2c0-.09.07-.39.17-.89a9.49,9.49,0,0,0,2.29-1.79,4.37,4.37,0,0,0,.7-1.07,4.76,4.76,0,0,0,.31-.9,9.12,9.12,0,0,0,.19-1.68l.09-3q0-.9.12-1.95c.06-.69.15-1.45.27-2.26,0-.34.27-1.69.78-4q1.78-7.32,1.92-8.16a6.32,6.32,0,0,0,.22-2.94c-.33-.44-1.16.17-2.51,1.81q-1.59,1.88-5.48,7.42,2.93,6.15,3.28,9.43a8.35,8.35,0,0,1,0,1.8l-.16.83a6.58,6.58,0,0,1-1.45,2.63,7.49,7.49,0,0,1-2.58,1.91c-.74.23-1.14.3-1.18.2a.46.46,0,0,1-.36-.32l-.06-.32a3.74,3.74,0,0,1,.14-.9l1-3.17c.14-.47.26-.93.35-1.38l.1-.66a5.58,5.58,0,0,0,0-1.23,5.88,5.88,0,0,0-.71-2.14,16.65,16.65,0,0,0-2-2.75" transform="translate(0 18.6)"/><path class="cls-6" d="M159.89,36.57l2.3.42a291.19,291.19,0,0,1,31.94,6.94q12.8,4,18.26,8a36.06,36.06,0,0,1,5.35,4.4L220,58.73A41.28,41.28,0,0,1,223.7,64q4.2,6.84,8.23,21.07-2-21.73-6.85-32.6a32.68,32.68,0,0,0-12.8-14.89q-10.08-6.51-31.54-12.07L159.89,36.57" transform="translate(0 18.6)"/><path class="cls-6" d="M182.91,101l2.11-.12a126.72,126.72,0,0,1,14-.24c1.23.06,2.42.17,3.55.32l1.65.26a24,24,0,0,1,3.22.8,18.16,18.16,0,0,1,2.82,1.23l1.24.75a18.22,18.22,0,0,1,2.21,1.74,37.06,37.06,0,0,1,5.91,7.58,64.1,64.1,0,0,0-5.21-12.86,15.13,15.13,0,0,0-3.14-3.86,11.3,11.3,0,0,0-3.75-2.12,17.12,17.12,0,0,0-9.88,0A72.93,72.93,0,0,0,182.91,101" transform="translate(0 18.6)"/><path class="cls-15" d="M141.17,188.73l.51,1.26q4.75,12.67,12.5,19.09a26.51,26.51,0,0,0,8.47,4.83,23.54,23.54,0,0,0,3.63.92l1.72.25a34.11,34.11,0,0,0,3.52.22q13-.09,21.84-5.5,5.46-2.88,11.15-18-6.4,11.21-13.25,15.38a36.45,36.45,0,0,1-8.6,4.07,31.88,31.88,0,0,1-4.49,1.13,24.33,24.33,0,0,1-5.39.37,20.13,20.13,0,0,1-6.79-1.52,28.1,28.1,0,0,1-6.09-3.54q-5.75-4-18.73-18.94" transform="translate(0 18.6)"/><path class="cls-16" d="M128.17,182.75q4,6.47,11.81,17.06.51,4.38.87,8.16a71.69,71.69,0,0,0,5.51,5.22,41.29,41.29,0,0,0,7.71,5.07,39.44,39.44,0,0,0,4,1.75,17.06,17.06,0,0,0,3,.93q1.32.33,3.15.72l.16,0a38.36,38.36,0,0,0,6.06.44,36.27,36.27,0,0,0,8.15-1.11A93.66,93.66,0,0,0,196.42,214h0q-11.58,4-17.26,5.34a21.27,21.27,0,0,1-9.18.11l-.65-.18c-.19,0-.39-.08-.6-.13q-4-1-12-6.32-5.21-3.6-10.82-8.38c-3-2.53-4.1-3.7-3.27-3.51h0l.08,0-14.57-18.18Z" transform="translate(0 18.6)"/><path class="cls-17" d="M142.68,201.8l.41,2.66q2.35,17.67,7.59,26a26.69,26.69,0,0,0,2.59,3.42,33.92,33.92,0,0,0,4.67,4.28,83.44,83.44,0,0,0,13,7.71,30.33,30.33,0,0,1-9.22-11.49q-2.81-5.61-7.29-24.12l-11.75-8.46" transform="translate(0 18.6)"/><path class="cls-18" d="M131.16,104.25l1.79,0q12.56.18,16.41,1.14a20.44,20.44,0,0,1,4.84,1.5l1.18.66a9.71,9.71,0,0,1,1.88,1.55,8.92,8.92,0,0,1,2.11,3.76,10,10,0,0,1,.34,2,11,11,0,0,1-.19,2.95q-.57,3.87-5.88,9.35.93-6.09.39-8.82a9.12,9.12,0,0,0-2.61-5.17,15,15,0,0,0-3.15-2.37,34.54,34.54,0,0,0-3.42-1.7q-4.47-2-13.69-4.89" transform="translate(0 18.6)"/><path class="cls-19" d="M124.86,122.61l6.87-2.63q4.41-5.42,6.56-6.69a9.89,9.89,0,0,1,5.51-1.82,11.94,11.94,0,0,1,6,1.48,33.31,33.31,0,0,1,7.38,6.07,25.26,25.26,0,0,0-3.14-5.19,11.5,11.5,0,0,0-1.2-1.22l-.68-.55a9.75,9.75,0,0,0-1.55-.92,21.2,21.2,0,0,0-10.66-1.26,16.4,16.4,0,0,0-4.55,1.12,10.8,10.8,0,0,0-2.91,1.84q-2.25,1.71-7.6,9.77" transform="translate(0 18.6)"/><path class="cls-20" d="M145.22,105.66l-1.6.45Q133,109,128.2,111.64a20.28,20.28,0,0,0-4.32,3.26,33.89,33.89,0,0,0-4,5.13q1.22-5.91,1.93-8.12a24.74,24.74,0,0,1,1.59-4.14,13,13,0,0,1,1.4-2.21l.82-.9a7.7,7.7,0,0,1,3.76-1.94,18.31,18.31,0,0,1,7.52.16q6.92,1.52,8.37,2.78" transform="translate(0 18.6)"/><path class="cls-19" d="M139,154.78l-.4.63c-.65,1.05-1,1.68-1.15,1.89-.24.42-.46.85-.67,1.27l-.29.65a10.09,10.09,0,0,0-.47,1.3l-.17.66-.12.66-.07.68a9,9,0,0,0,0,1.37l.1.7c.09.47.2.94.34,1.42a38.22,38.22,0,0,0,2,5.07,57.8,57.8,0,0,1-.59-9.32c0-.45.06-.89.1-1.31,0-.22.11-.83.29-1.82s.53-2.26,1-3.85" transform="translate(0 18.6)"/><path class="cls-21" d="M176,151l-.71.85q-3.87,4.77-7,5.88c-2.28.88-5.11.54-8.52-1a27.82,27.82,0,0,1-6.16-4.06,20.28,20.28,0,0,1-4.6-5.38,8.94,8.94,0,0,1-1-2.81,5.93,5.93,0,0,1,0-1.83,6.7,6.7,0,0,1,1.58-3.35,14,14,0,0,1,1.35-1.42l.73-.6a12.87,12.87,0,0,1,1.42-1,6,6,0,0,1,1.68-.72c.29-.05.47,0,.53.16.12,0,0,.37-.32,1.15-1.7,2.94-2.64,4.64-2.82,5.12a11.51,11.51,0,0,0-1,3.18q-.57,3.88,2.33,5.39,2.16,1,8.18.34a26.79,26.79,0,0,0,3.64,2.32,9.3,9.3,0,0,0,1.87.71,5.65,5.65,0,0,0,1.28.18c1.71.12,4.26-.91,7.64-3.11" transform="translate(0 18.6)"/><path class="cls-22" d="M205,169.32l.35-1.24a37.22,37.22,0,0,0,1.48-7.25,13.93,13.93,0,0,0,0-2.24l-.16-1.07a8.44,8.44,0,0,0-.65-2,9.4,9.4,0,0,0-1.15-1.84l-.76-.87a17.65,17.65,0,0,0-1.79-1.62,55.49,55.49,0,0,0-8.16-5,85.72,85.72,0,0,1,6.44,6.66,25.49,25.49,0,0,1,2.14,2.87,16.89,16.89,0,0,1,1.07,1.93,14,14,0,0,1,.74,1.94,16,16,0,0,1,.58,2.93,35.45,35.45,0,0,1-.12,6.88" transform="translate(0 18.6)"/><path class="cls-19" d="M135.92,117.43l-.94.41a59.45,59.45,0,0,1-9.51,3.56,17.63,17.63,0,0,1-7.13.16,10.71,10.71,0,0,0,3.27,1.22,7.65,7.65,0,0,0,3.18-.15,14.74,14.74,0,0,0,1.56-.46c.24-.06,1.12-.43,2.63-1.1s3.84-1.92,6.94-3.64" transform="translate(0 18.6)"/><path class="cls-19" d="M188.51,32.2h0" transform="translate(0 18.6)"/><path class="cls-19" d="M106.54,117.53c.25.53.58,1.14,1,1.82v.34q0,1.4.06,2.67a17.4,17.4,0,0,1,2.73,4.31,29.15,29.15,0,0,1,1.85,5.26q.21.52,1.52,6.84c0,.08.09.17.13.25l2.82,5.95,0,.14a1.48,1.48,0,0,1,0,.26c.26.79.5,1.65.73,2.57s.35,1.53.49,2.26.22,1.21.32,1.84h0a5.45,5.45,0,0,0,.86.83,2.63,2.63,0,0,0,.83.43.45.45,0,0,0,.62-.32,8.4,8.4,0,0,0-.71-3.53l-.39-1.17a27.6,27.6,0,0,1-3.05-4,8.09,8.09,0,0,1-.81-1.76,5.45,5.45,0,0,1-.25-1.2c-.28-1.6.62-4.13,2.69-7.57l-.76-8-1.07-.88a85.6,85.6,0,0,0-9.64-7.31Z" transform="translate(0 18.6)"/><path class="cls-19" d="M231.89,123.39l.35.57q1,1.77,2,3.15a8.13,8.13,0,0,0,1.3,1.43,1.92,1.92,0,0,0,1.35.52,1.19,1.19,0,0,0,.4-.14l.17-.13a1.19,1.19,0,0,0,.27-.38,2.51,2.51,0,0,0,.22-1.22,8,8,0,0,0-.42-2.09,57.12,57.12,0,0,0-2.88-6.71l-2.8,5" transform="translate(0 18.6)"/><path class="cls-19" d="M243.21,114l-.13.54a22.88,22.88,0,0,0-.51,2.51c0,.29-.06.56-.07.8l0,.34c.07.69.39,1,1,.83a2.55,2.55,0,0,0,1.11-.7,5.31,5.31,0,0,0,.6-.69l.3-.44a9.43,9.43,0,0,0,.55-1.06l.25-.62.25-.78.22-.84a26.86,26.86,0,0,0,.59-3.71c0-.64.09-1.26.1-1.86s0-1.17,0-1.7l-.06-.75c-.17-1.8-.66-2.76-1.49-2.88a1,1,0,0,0-.79.38,2.08,2.08,0,0,0-.27.41l-.11.25a5.83,5.83,0,0,0-.17.58,9.59,9.59,0,0,0-.19,1.07c-.25,2.24-.64,5-1.17,8.32" transform="translate(0 18.6)"/><path class="cls-19" d="M175.93,116.73l.33-.13a17.67,17.67,0,0,0,3.89-2.14l6.51-5a41.2,41.2,0,0,1,3.88-2.61,11.45,11.45,0,0,1,5.27-1.8,8.66,8.66,0,0,1,4.88,1.35A18.38,18.38,0,0,1,203,108l4.11,3.54c.45.37.89.72,1.33,1a11.13,11.13,0,0,0,2.12,1.27,12.36,12.36,0,0,0,6.57.75,13.53,13.53,0,0,1-4-1.65c-.91-.56-1.48-.94-1.72-1.13q-4.14-3.07-5.84-4.17a21.28,21.28,0,0,0-3-1.66q-3-1.42-8.25-1.07-7.59.41-11,2.69-3.32,1.86-7.34,9.1" transform="translate(0 18.6)"/><path class="cls-19" d="M185,121.28l1.07.23a49.7,49.7,0,0,0,6.39,1c.7.05,1.39.07,2.08.06l1,0a17.4,17.4,0,0,0,2-.29,15.54,15.54,0,0,0,2-.57,20,20,0,0,0,2.92-1.28,61,61,0,0,0,6.64-4.18q-11.19,4.35-15.06,5.07c-.67.14-1.31.25-1.9.32a20.48,20.48,0,0,1-2.47.18,26.69,26.69,0,0,1-4.73-.47" transform="translate(0 18.6)"/><path class="cls-19" d="M128.58,126.31l1.16.25q3.48.8,6.81,1.21c.73.08,1.46.14,2.17.16l1.06,0a17.06,17.06,0,0,0,2.05-.14,15.77,15.77,0,0,0,2-.37,19.62,19.62,0,0,0,2.78-.94,46.39,46.39,0,0,0,6.06-3.23,40.24,40.24,0,0,1-10.86,3.3,35.33,35.33,0,0,1-5.27.24q-2.75,0-7.92-.5" transform="translate(0 18.6)"/><path class="cls-23" d="M167.94,136.12l-.76.13q-4.25.63-5.66,2.22a3.64,3.64,0,0,0-.68,1l-.22.62a7,7,0,0,0-.06,3,8.88,8.88,0,0,0,1.19,3.08,7.71,7.71,0,0,0,1,1.3l.63.54a7.62,7.62,0,0,0,5.63,1.3,8,8,0,0,0,5.37-3.09,9.35,9.35,0,0,0,2-6.42l-.14-.68a3.36,3.36,0,0,0-.54-1.09,3.56,3.56,0,0,0-1.36-1.05q-1.57-.84-6.41-.85" transform="translate(0 18.6)"/><path class="cls-24" d="M167.33,146.36h1q4.42,0,5.9-1.43a4.3,4.3,0,0,0,1-1.31l.35-.87.24-1.05a13.77,13.77,0,0,0,.09-2.63,39.35,39.35,0,0,0-.56-4.91q-2.19-12-2.09-12.55-.27-2.14-.32-7.77a11.09,11.09,0,0,0-.2-1.77l-.2-.75c-.55-1.71-2.3-2.58-5.26-2.58a10.38,10.38,0,0,0-3.35.61,7,7,0,0,0-2.12,1.2c-1.28,1-1.86,2.69-1.76,5.14,0,.77.12,1.58.25,2.43l1.07,6.62a23.59,23.59,0,0,1,.19,2.62,29.61,29.61,0,0,1-.19,3.71c-.09.94-.43,3.07-1,6.39l-.19,1.77a10.39,10.39,0,0,0,.22,2.89q1.32,5,6.9,4.25" transform="translate(0 18.6)"/><path class="cls-25" d="M123.16,110l.43-1.46q1.95-6.6,4-9.4a12.86,12.86,0,0,1,6.73-5.09,33.29,33.29,0,0,1,5.13-1.32q14.22-2.26,16.84-2.92l19-4.34a74.89,74.89,0,0,1,9.47-1.37q9.81-.85,15.8,3.34,6.57,4.39,13.18,16.37a45.78,45.78,0,0,0-11-5.38,26.11,26.11,0,0,0-10.1-.9,64.32,64.32,0,0,0-7.94,1.26L170,102.44a65.22,65.22,0,0,1-7.1,1.3,52.83,52.83,0,0,1-7.14.34l-11.8-.57c-1.15,0-2.27-.06-3.37-.05a30.71,30.71,0,0,0-6,.57,27,27,0,0,0-11.44,6" transform="translate(0 18.6)"/><path class="cls-23" d="M215.2,66.6h0" transform="translate(0 18.6)"/><path class="cls-26" d="M189.05,98.09l2,.15q8.53.86,13.21-.51a3.91,3.91,0,0,0,1.61-1.11l.41-.77c.32-1.18,0-2.71-.94-4.61a31.19,31.19,0,0,0-1.67-3l-3.41-5L183.35,60.25q-1.87-2.58-3.8-4.77-6.36-7-14.43-7.53A20.9,20.9,0,0,0,160,48a17.4,17.4,0,0,0-3.39.8,14.94,14.94,0,0,0-3.2,1.54l-1.47,1.07a14.55,14.55,0,0,0-2.62,2.83,30.61,30.61,0,0,0-4,9q-.87,2.7-3.84,16.09c-.42,1.67-.88,3.22-1.37,4.63a30.75,30.75,0,0,1-2.53,5.34,68.45,68.45,0,0,1-4,5.72l-1,1.68a3.3,3.3,0,0,0,0,2.74q4,6.35,18.22,5.76,12.72-.77,38.27-7.16" transform="translate(0 18.6)"/><path class="cls-27" d="M186,121.81l0,.78a15.74,15.74,0,0,0,.88,6.17,30.42,30.42,0,0,0,4.39,7.76,72.94,72.94,0,0,0,8.21,9.41,32.14,32.14,0,0,0,8.51,6.27,10.36,10.36,0,0,0,4.82,1.08,6,6,0,0,0,4.07-1.81,11.12,11.12,0,0,0,2.55-4.7q.84-2.09,1.18-8.32a40.15,40.15,0,0,0-.2-5.23,27.27,27.27,0,0,0-1.16-5.8q-1.6-4.8-4.81-6.43a9.33,9.33,0,0,0-5.48-.8,85.9,85.9,0,0,0-9.24,1.88,27.31,27.31,0,0,1-4.46.5,50.41,50.41,0,0,1-9.24-.76" transform="translate(0 18.6)"/><path class="cls-28" d="M150.12,136.77l-1,1.77c-1.3,2.37-2.62,4.6-4,6.66a26,26,0,0,1-4.24,5.11,10.52,10.52,0,0,1-2.28,1.58l-1.19.48a7.31,7.31,0,0,1-3.91.07,10.52,10.52,0,0,1-5.06-3.08,12.8,12.8,0,0,1-1.88-2.62,12.16,12.16,0,0,1-.88-2.06A16.56,16.56,0,0,1,127,132.51a9.84,9.84,0,0,1,3.75-4.17,6.31,6.31,0,0,1,4.33-.63,18.81,18.81,0,0,1,6.38,2.75,98.14,98.14,0,0,1,8.7,6.31" transform="translate(0 18.6)"/><path class="cls-29" d="M135.46,161.76l-.54.68a13.75,13.75,0,0,0-2.92,5.1,7.18,7.18,0,0,0-.25,1.69l0,.91a9.19,9.19,0,0,0,.4,1.94,28.75,28.75,0,0,0,3.44,6.64q-.21-.16,6.61,9.48c1.05,1.44,1.64,2,1.75,1.72s-.11-1.56-.82-3.75q-.28-1.14-6.1-17.5L136,165.31c-.58-2-.75-3.18-.52-3.55" transform="translate(0 18.6)"/><path class="cls-30" d="M172.6,201.06l-1.33-.1a36.48,36.48,0,0,0-6.72-.14,3.53,3.53,0,0,0-1.25.35l-.34.29a.82.82,0,0,0,0,.86q2.06,3.24,10.83,6.9,9.69,3.59,16.71-.9,7.74-5.12,13.75-16.9a50.39,50.39,0,0,0,2.63-5.91,22.29,22.29,0,0,0,.93-3.23c.51-2.54,0-3.88-1.67-4q-2.68.08-6.16,3.54a23.68,23.68,0,0,0-2.43,3c-.86,1.27-2.24,3.48-4.13,6.65-.55.89-1.12,1.74-1.72,2.54a15.78,15.78,0,0,1-4,4q-1.59,1.32-6.36,2.37a59.09,59.09,0,0,1-8.75.68" transform="translate(0 18.6)"/><path class="cls-31" d="M167.15,180.1l.81.47q6.3,3.83,10.18,4.39a11.58,11.58,0,0,0,3.57,0,14.37,14.37,0,0,0,4.48-1.47A19.79,19.79,0,0,0,193.5,177a40.5,40.5,0,0,0,4.92-12.51L167.15,180.1" transform="translate(0 18.6)"/></g><g id="layer3"><path class="cls-32" d="M173.19,114h0" transform="translate(0 18.6)"/><path class="cls-32" d="M145.38,114.94l-.26-.06a9,9,0,0,0-4.59,0,14.07,14.07,0,0,0-4.88,2.64l-2,1.53a12.56,12.56,0,0,0,3.66,1.6,26.43,26.43,0,0,0,7.25.38,41.54,41.54,0,0,0,8.26-1.1,5.81,5.81,0,0,1,.87-.75q0-.32-.69-.75a31.66,31.66,0,0,0-4.16-2.23A22.66,22.66,0,0,0,145.38,114.94Z" transform="translate(0 18.6)"/><path class="cls-32" d="M197.05,108.39l-1.05,0a20.9,20.9,0,0,0-5.18.84,17,17,0,0,0-3.55,1.72q-3.57,2.22-2.65,4.6,7.27-.33,10.48-.84a31.61,31.61,0,0,0,7.83-2.37.67.67,0,0,1,0-.43C201,110.83,199,109.65,197.05,108.39Z" transform="translate(0 18.6)"/><path class="cls-33" d="M145.38,114.94l-.26-.06a9.07,9.07,0,0,0-4.42-.06,12.17,12.17,0,0,0-3.89,1.86c-.51.32-1.55,1.11-3.11,2.36a12.85,12.85,0,0,0,3.21,1.48c-.38-1.15,0-2.21,1.28-3.18q.76-.89,3.9-1a17.68,17.68,0,0,1,5.86.75,6.73,6.73,0,0,1,1.25.54,5.84,5.84,0,0,1,1.31.94,2.37,2.37,0,0,1,.24,1.81,16.8,16.8,0,0,0,2.12-.47,5.81,5.81,0,0,1,.87-.75q0-.32-.69-.75a31.66,31.66,0,0,0-4.16-2.23A22.66,22.66,0,0,0,145.38,114.94Z" transform="translate(0 18.6)"/><path class="cls-33" d="M197.05,108.39l-1.05,0a20.9,20.9,0,0,0-5.18.84,17,17,0,0,0-3.55,1.72q-3.57,2.22-2.65,4.6l2.91-.15a1.48,1.48,0,0,1-1-1.19l.06-.78a3.07,3.07,0,0,1,.66-1.37,4.94,4.94,0,0,1,1.39-1.1,10.08,10.08,0,0,1,2.12-.83l1.32-.31a15.94,15.94,0,0,1,6.32-.11l.6.18a3.83,3.83,0,0,1,1,.5,2.71,2.71,0,0,1,.71.68,3.22,3.22,0,0,1,.58,2l1.64-.68a.67.67,0,0,1,0-.43C201,110.83,199,109.65,197.05,108.39Z" transform="translate(0 18.6)"/><path class="cls-34" d="M196.94,108.39l-.94,0a20.9,20.9,0,0,0-5.18.84A18.51,18.51,0,0,0,189,110a5,5,0,0,0-.29,1.73,4.81,4.81,0,0,0,1.6,3.49c2-.15,3.62-.32,4.81-.51.79-.13,1.59-.29,2.41-.49a4.69,4.69,0,0,0,.75-2.65A4.76,4.76,0,0,0,197,108.4Z" transform="translate(0 18.6)"/><path class="cls-34" d="M145.38,114.94l-.26-.06a10.51,10.51,0,0,0-2.54-.3,6.91,6.91,0,0,0-1.88.24l-.26.07a7.94,7.94,0,0,0-1.48.54,6.08,6.08,0,0,0-.31,1.24,4.73,4.73,0,0,0,1,3.55,5.48,5.48,0,0,0,.84.83q1.77.08,4.11,0l1.87-.13a4.75,4.75,0,0,0,1.67-3.08l0-.65a4.43,4.43,0,0,0-.19-1.27l0-.1A22.23,22.23,0,0,0,145.38,114.94Z" transform="translate(0 18.6)"/><path class="cls-35" d="M193.94,109.71l.32.06a3.37,3.37,0,0,1,1.5.65.79.79,0,0,1,.36.92,1.39,1.39,0,0,1-1,.64,4.41,4.41,0,0,1-1.81,0,3.46,3.46,0,0,1-1.51-.65.82.82,0,0,1-.36-.92,1.38,1.38,0,0,1,1-.64,4.27,4.27,0,0,1,.55-.08h.3c.21,0,.42,0,.64,0" transform="translate(0 18.6)"/><path class="cls-35" d="M144.22,115.21l.32.05a3.58,3.58,0,0,1,1.51.65.82.82,0,0,1,.36.93,1.38,1.38,0,0,1-1,.63,4.41,4.41,0,0,1-1.81,0,3.42,3.42,0,0,1-1.5-.64q-.54-.45-.36-.93a1.35,1.35,0,0,1,1-.63,3.17,3.17,0,0,1,.55-.08h.3a4.68,4.68,0,0,1,.64,0" transform="translate(0 18.6)"/><path class="cls-36" d="M199.34,162.1,199,162a20,20,0,0,0-5.32.57q-7.89-2.15-12-2c-.79,0-1.73.12-2.81.25q-9.49,1.92-9.9,1.69a22.27,22.27,0,0,1-3.21-.15l-6.2-1a8.56,8.56,0,0,0-2.32,0,12.6,12.6,0,0,0-4.71,1.66c-4.09,2.44-6.12,3.78-6.1,4-.82.9-1,1.64-.57,2.23a7.18,7.18,0,0,0,1.48,1.8l7.16,7,1.47,1.23a13.22,13.22,0,0,0,6.84,3.2Q174.91,184,183,179.39A68.48,68.48,0,0,0,195.93,169a28.41,28.41,0,0,0,3.84-4.7C200.44,163.15,200.3,162.43,199.34,162.1Z" transform="translate(0 18.6)"/><path class="cls-37" d="M199.34,162.1,199,162a20,20,0,0,0-5.32.57c-1.12-.32-2.26-.61-3.4-.87a36.57,36.57,0,0,1-7.11,3.23,27.22,27.22,0,0,1-5.27,1.16,25.44,25.44,0,0,1-3.48.18c-2.79,0-5.42-1.32-7.87-3.84-.46,0-2.52-.29-6.21-.93a19,19,0,0,0-2.15-.18,11.34,11.34,0,0,0-4.89,1.3c-4.31,2.53-6.52,3.91-6.62,4.16a2.17,2.17,0,0,0-1,2.13,5,5,0,0,0,1.38,1.9l7.42,7.26a26.28,26.28,0,0,0,4,3q-2.11-5-.08-6a7.48,7.48,0,0,1,2.24-.45q11.81.33,14.5-.56a53.57,53.57,0,0,0,6-1.8l12.47-4.93a8.67,8.67,0,0,1,2.59-.32c.33,0,.61.21.85.72Q201.81,162.5,199.34,162.1Z" transform="translate(0 18.6)"/><path class="cls-38" d="M199.49,162.13l-.15,0L199,162a18.66,18.66,0,0,0-5.06.52,14.68,14.68,0,0,1-1.49.51l-8.09,1.58-9.62,2.53a29.45,29.45,0,0,1-3.92.71,19.52,19.52,0,0,1-3-.06,106.71,106.71,0,0,0-12.62-1.91,17.68,17.68,0,0,0-8,1,5.79,5.79,0,0,0-1.43,1l-.1.18a1.18,1.18,0,0,0,.13,1.21,1.34,1.34,0,0,0,.21.37,1.51,1.51,0,0,1,.34-1.25,1.84,1.84,0,0,1,.92,0,8.42,8.42,0,0,1,1.73.7c.89.49,3,1.92,6.28,4.31a8,8,0,0,0,1.65.76q11.2,1.42,14.33,1.08a28.28,28.28,0,0,0,4.12-.79l5.32-1.89q6.79-1.77,7.51-2.25a28.34,28.34,0,0,0,2.68-1.52l7-5.31c.72-.45,1.4-.86,2-1.22a1.05,1.05,0,0,0-.45-.22Z" transform="translate(0 18.6)"/><path class="cls-37" d="M155.85,171.89l-.06-.47c-.43-2.91-.21-4.41.69-4.5a2.29,2.29,0,0,1,.75,0,72,72,0,0,0,8.07,1.34,27.4,27.4,0,0,0,4.8.16,35.85,35.85,0,0,0,5.72-.92c1.28-.3,2.6-.63,4-1l1-.27,6.06-1.71,2.43-.6a8.2,8.2,0,0,1,1.33-.18,2.24,2.24,0,0,1,.61,0c.27,0,.43.21.46.56s-.72,1.8-2.52,4.12l-10.4,2.19c-4,.78-7,1.33-9,1.63a53.09,53.09,0,0,1-5.43.63,23.91,23.91,0,0,1-8.51-1.06" transform="translate(0 18.6)"/><path class="cls-34" d="M158.58,171.3l-.17,0a3.35,3.35,0,0,1-1.8-.58,3.21,3.21,0,0,1-1-1.58,2.4,2.4,0,0,1,0-1.68c.12-.31.56-.59,1.34-.81a15.89,15.89,0,0,0-3.4-.84,8.9,8.9,0,0,0-3.32.27,17.48,17.48,0,0,0-2.08.69,5.59,5.59,0,0,0-1.68.87.54.54,0,0,0,.25,0c.49-.08.93-.15,1.33-.2a6.87,6.87,0,0,1,1,0,2.76,2.76,0,0,1,1.54.49,3.89,3.89,0,0,1,.79.8,21,21,0,0,1,1.47,2.46,8.16,8.16,0,0,0,.9,1.18,5.24,5.24,0,0,0,1.12.92,4.67,4.67,0,0,0,.67.34l.36.13a8,8,0,0,0,2.76.31,39.88,39.88,0,0,0,4.83-.55l-5-2.16" transform="translate(0 18.6)"/><path class="cls-34" d="M199.49,162.13l-.15,0L199,162a20,20,0,0,0-5.32.57h0l-.62.32a8.1,8.1,0,0,0-1.07.87l-3.42,3.39L183,169l.57.06a33.8,33.8,0,0,0,5.28.24,6.4,6.4,0,0,0,2.58-.6,3.15,3.15,0,0,0,1.15-.94,3.2,3.2,0,0,0,.29-.51,12.68,12.68,0,0,1,.87-2,2.79,2.79,0,0,1,1-1,5.69,5.69,0,0,1,1.65-.59,36.39,36.39,0,0,1,3.85-.51.25.25,0,0,0,0-.12.8.8,0,0,0-.69-.94Z" transform="translate(0 18.6)"/><path class="cls-39" d="M179,178.33l1.21-.61q4.19-2.13,5.54-2.9a24.71,24.71,0,0,0,3-1.88,3.15,3.15,0,0,0,.69-.7.48.48,0,0,0,.08-.43c0-.23-.45-.38-1.21-.45a19.52,19.52,0,0,0-5.25.68c-.31.06-1.27.34-2.89.84q-7.83,2.7-7.68,2.58c-.6.17-1.18.33-1.74.46l-4.22.88a5.36,5.36,0,0,0-.93.3c-1,.48-1.15,1.18-.47,2.11a4.19,4.19,0,0,0,1.35,1.19,4.71,4.71,0,0,0,1,.45,6,6,0,0,0,1.38.31,7.83,7.83,0,0,0,1.45,0,14.17,14.17,0,0,0,2.42-.47,52.35,52.35,0,0,0,6.33-2.35" transform="translate(0 18.6)"/></g><g id="layer4"><path class="cls-32" d="M155.62,169.14l-.12-.26q-.7-1.66-.75,0a7.65,7.65,0,0,0,.72,3.26,1.65,1.65,0,0,0,.55.66,1.8,1.8,0,0,0,1,.23,2.53,2.53,0,0,0,1,.74,2.84,2.84,0,0,0,1.66-.12c.52.56.91.8,1.18.72s.82-.31,1.56-1a2.15,2.15,0,0,0,.89.75,3.52,3.52,0,0,0,1.91-.17c.21.59.82.87,1.84.84,2.43,0,3.89-.19,4.36-.5a7.65,7.65,0,0,0,2.19,0,9.28,9.28,0,0,0,4.32-1.57,3.73,3.73,0,0,0,2,0,5,5,0,0,0,2-2,.82.82,0,0,0,1.07.79,4.11,4.11,0,0,0,2.91-1.64q.76.87,1.44.69a2.36,2.36,0,0,0,1.81-1.47q.45.72,1.5.3c.42-.18.77-.8,1-1.85a8.07,8.07,0,0,0,.18-3.57c-.13-.23-.34-.2-.62.11a11.22,11.22,0,0,0-1.29,1.79c-.07-1.53-.39-2.1-.95-1.71a12.12,12.12,0,0,0-2.49,2.71q.92-3-2-2c-1,.24-1.94,1.21-2.85,2.9.11-1.35-.27-2-1.13-2-1,0-2.08.75-3.19,2.33.08-1.05-.18-1.54-.79-1.47a3.66,3.66,0,0,0-.9.15l-3.5,1a4.37,4.37,0,0,0-1.54,1.11,5.84,5.84,0,0,0-2.05-.83,5.44,5.44,0,0,0-2.18-.19c-.77.05-1.14.87-1.12,2.46-1-1.37-1.71-2.07-2.15-2.1s-1,.62-1.41,1.88c-1.41-1.78-2.54-2.71-3.39-2.81s-.83.66-.33,2.4q-1.48-1.67-1.83-1.71c-.28-.11-.44.24-.47,1" transform="translate(0 18.6)"/><path class="cls-33" d="M157.78,169.14h0c0,.22.09.44.14.66l-.47-.52h0l1,3.06a4.55,4.55,0,0,1,.12,1.47,6.3,6.3,0,0,0,1.08-.19l.08.08-1.93-4.56Z" transform="translate(0 18.6)"/><path class="cls-33" d="M155,168h-.07a3.22,3.22,0,0,0-.09,1.86,6.18,6.18,0,0,0,.84,2.51,1.23,1.23,0,0,0,.75.51,2.87,2.87,0,0,0,.58.07c-.65-1.84-1.1-3.24-1.33-4.2h0c0,.11,0,.23,0,.34C155.38,168.61,155.14,168.08,155,168Z" transform="translate(0 18.6)"/><path class="cls-33" d="M162.11,169.08a6.71,6.71,0,0,0-.47,1.13l-.27-.33h0c.1.28.21.59.34.93a22.3,22.3,0,0,0,.33,2.85l.34-.27a3.2,3.2,0,0,0,.47.5l-.76-4.2A2.15,2.15,0,0,1,162.11,169.08Z" transform="translate(0 18.6)"/><path class="cls-33" d="M165.41,168.78a5.21,5.21,0,0,0-.21,1.65l-.17-.22h0l.16,1.57L165,174l.21-.05a1.21,1.21,0,0,0,.34.49l.24-2.17-.35-3.35c0-.05,0-.11,0-.16Z" transform="translate(0 18.6)"/><path class="cls-33" d="M171.86,168h0a5.37,5.37,0,0,0-1.3,1l-.09-.07h0c0,1,0,2.11,0,3.48a5,5,0,0,0,.3,1.28l.38.77a.58.58,0,0,0,.2-.12.56.56,0,0,1-.22-.25,9.3,9.3,0,0,1,.75-6.1Z" transform="translate(0 18.6)"/><path class="cls-33" d="M178.47,166.77a10,10,0,0,0-1.11,1.29,42.88,42.88,0,0,1,0,5l.52-.31h0a37.14,37.14,0,0,1,.27-5,4,4,0,0,1,.31-1Z" transform="translate(0 18.6)"/><path class="cls-33" d="M181.51,166.65v0Z" transform="translate(0 18.6)"/><path class="cls-33" d="M182.31,166.65c-.25.37-.48.76-.71,1.15a6.48,6.48,0,0,0-.07-1.11h0l-.34,4.74-.06.38c.26-.32.52-.68.77-1.05a.5.5,0,0,0,0,.13Z" transform="translate(0 18.6)"/><path class="cls-33" d="M186.65,165.58c-.14.8-.29,1.51-.44,2.12a16.14,16.14,0,0,1-.87,2.57l-.22.44a2.84,2.84,0,0,0,.74-.8l.09.1,1.38-4.16h0c-.29.35-.57.7-.84,1.06a6.11,6.11,0,0,0,.18-1.33Z" transform="translate(0 18.6)"/><path class="cls-33" d="M191.68,163.86c-.37-.09-1.06,1-1.76,2v-.11h0a16.46,16.46,0,0,1-1.31,4.09,5.6,5.6,0,0,0,.51-.76.85.85,0,0,0,.56.42l.14,0c.43.06,1.16,0,1.63-1.29a8.71,8.71,0,0,0,.39-4.28A.24.24,0,0,0,191.68,163.86Z" transform="translate(0 18.6)"/></g><g id="layer5"><path class="cls-34" d="M188.58,115.45l-1,.18a62.28,62.28,0,0,1-6.36,1q-2,.18-1.32-.54a4.68,4.68,0,0,1,.93-.82L184,113a46.23,46.23,0,0,1,4.77-3.68,10.47,10.47,0,0,1,4-1.54,12.46,12.46,0,0,1,2.45-.15,12.8,12.8,0,0,1,2.91.46,14.82,14.82,0,0,1,2.39.93c.43.2.85.42,1.26.64,2,1.15,3.14,1.79,3.45,1.93a13.57,13.57,0,0,0,1.38.61,13.92,13.92,0,0,0,4.59.74,25.51,25.51,0,0,1-6.35-.15,9.57,9.57,0,0,1-1.91-.56,36.87,36.87,0,0,1-3.81-1.94,12.68,12.68,0,0,0-1.72-.72,10.46,10.46,0,0,0-4.24-.37l-.7.1a12.51,12.51,0,0,0-1.38.29,13.06,13.06,0,0,0-2.55,1,9.26,9.26,0,0,0-3,2.35c-.69,1-.8,1.63-.34,1.92.24.34,1.36.56,3.35.64" transform="translate(0 18.6)"/><path class="cls-34" d="M203.14,111.43l-.42.23a27.14,27.14,0,0,1-4.71,2.26,28.89,28.89,0,0,1-5.57,1.16,33.49,33.49,0,0,0,7.86-1.35,30.34,30.34,0,0,0,4.6-2.07l-1.76-.23" transform="translate(0 18.6)"/><path class="cls-34" d="M180.34,111.81l.49-.44a20.19,20.19,0,0,1,6.68-4.34,23.24,23.24,0,0,1,7.54-1.46,18.19,18.19,0,0,1,3,.17,14.94,14.94,0,0,1,3.29.83,21.23,21.23,0,0,1,3.27,1.55q2.35,1.41,4.6,3a36.67,36.67,0,0,0-4.06-3.59,15.61,15.61,0,0,0-3.32-1.84,14.06,14.06,0,0,0-2-.64l-1.46-.29a26.29,26.29,0,0,0-5-.25c-.85,0-1.7.1-2.53.2a26.39,26.39,0,0,0-3.5.65,12.71,12.71,0,0,0-3.49,1.39,7.09,7.09,0,0,0-2,1.84,12,12,0,0,0-1.52,3.19" transform="translate(0 18.6)"/><path class="cls-40" d="M176.29,104.27l.08-.39a8.89,8.89,0,0,1,1.51-3.87,9.69,9.69,0,0,1,3.87-2.43c-.83.18-2.08,1.68-3.73,4.5q2.4-3.45,4.76-4.23a13.11,13.11,0,0,1,1.5-.46l4.51-1q5.29-1.42,5.91-1.51a24.77,24.77,0,0,1,5.3-.64,16.57,16.57,0,0,1,4.18.58,14.11,14.11,0,0,1,4.09,1.86q3.16,2.08,6.44,7.32a43.45,43.45,0,0,0-6.76-3.87A11.82,11.82,0,0,0,202.72,99l-.86.06a17.44,17.44,0,0,0-1.74.27l-6.5,1.63c-.67.15-1.34.29-2,.42l-3.08.51q-7.22,1-7.43,1.09a13.71,13.71,0,0,0-3.42,1.11,27.43,27.43,0,0,1,2.17-3.23,7.76,7.76,0,0,1,1.88-1.64,10.93,10.93,0,0,0-4.55,4.39q1.53-3.6,2.2-4a9.25,9.25,0,0,0-3.07,4.61" transform="translate(0 18.6)"/><path class="cls-34" d="M146.16,120.82h.94a50,50,0,0,0,7.15-.32c1.45-.24,1.9-.7,1.36-1.37-1.2-1.18-3.51-2.45-6.92-3.79a19.88,19.88,0,0,0-7-1.59l-.78,0a9.08,9.08,0,0,0-1.43.24,10.25,10.25,0,0,0-2.48,1,20.24,20.24,0,0,0-2.63,1.75l-5,4a8.3,8.3,0,0,1-1.87,1,19.82,19.82,0,0,0,5.82-1.57,10.76,10.76,0,0,0,1.61-.95c.35-.24,1.37-1.07,3.06-2.5a13,13,0,0,1,1.58-1.09,6.3,6.3,0,0,1,3-.87,12.37,12.37,0,0,1,5,1,9.28,9.28,0,0,1,4,2.64c.31.53.12,1-.59,1.29a19.93,19.93,0,0,1-4.93,1.13" transform="translate(0 18.6)"/><path class="cls-34" d="M132.46,119.38l.36.13c1.32.45,2.39.79,3.22,1a19.21,19.21,0,0,0,2.66.56c.35,0,.69.08,1,.1l.51,0h1c.84,0,2-.08,3.52-.22-1.4.08-2.49.1-3.27.07-.31,0-.63,0-.94-.07l-.48-.05-.47-.07-.48-.09c-.29-.06-.59-.13-.88-.22l-.45-.13c-.3-.09-.59-.19-.89-.3-.59-.19-1.79-.7-3.6-1.52l-.85.75" transform="translate(0 18.6)"/><path class="cls-34" d="M129.56,117.27l.38-.43a17.55,17.55,0,0,1,2.58-2.5,12.46,12.46,0,0,1,2.44-1.43,12.71,12.71,0,0,1,1.56-.6,20.53,20.53,0,0,1,2.74-.71,26.42,26.42,0,0,1,4-.49,18.64,18.64,0,0,1,2.86.06,11.68,11.68,0,0,1,3.12.72,11,11,0,0,1,2.31,1.21,26.32,26.32,0,0,1,2.9,2.32,19.85,19.85,0,0,0-2.59-3,8.74,8.74,0,0,0-2.32-1.5,9.61,9.61,0,0,0-3.08-.76l-1-.07c-.7,0-1.42,0-2.17,0a29.41,29.41,0,0,0-4.47.67,23.88,23.88,0,0,0-3,.89,15.19,15.19,0,0,0-1.64.71,9.22,9.22,0,0,0-2.74,2.07,13.34,13.34,0,0,0-1.82,2.77" transform="translate(0 18.6)"/><path class="cls-41" d="M156.31,108.81l-.18-.37a10.16,10.16,0,0,0-1.83-3,4.46,4.46,0,0,0-2-1.17,15,15,0,0,0-3-.54,5.85,5.85,0,0,1,2.32,1.06,26.8,26.8,0,0,1,3.11,3q-3.39-3.34-4.73-3.58l-2.88-.7c-3-.85-4.83-1.35-5.45-1.48-1.35-.33-2.33-.54-2.95-.63a19.21,19.21,0,0,0-6.17-.24,11.56,11.56,0,0,0-7.45,4c-1.37,1.54-2.31,4.4-2.81,8.56,1.25-2.47,2.26-4,3-4.52a8.14,8.14,0,0,1,4.21-1.93,27.84,27.84,0,0,1,5.06-.37l14.11.31c2.41.13,4.12.57,5.11,1.35a7.48,7.48,0,0,0-1.9-2.44,12.92,12.92,0,0,0-3.36-1.63,20,20,0,0,1,3.6,1.63,24.58,24.58,0,0,1,3.28,2.61c-.39-1-1.57-2.37-3.53-4a28.26,28.26,0,0,1,4.4,4.1" transform="translate(0 18.6)"/><path class="cls-34" d="M174.26,151.87l-.43.21a22.91,22.91,0,0,1-3.4,1.38,6.07,6.07,0,0,1-2.53.22,7.36,7.36,0,0,1-2.44-.83c-.21-.1-.53-.29-1-.55l-2.14-1.43-.69-.43a7.5,7.5,0,0,0-1.17-.56,4.57,4.57,0,0,0-1.48-.27,8.71,8.71,0,0,0-1.93.17l5.53,2q1.22.9,1.74,1.23a12.17,12.17,0,0,0,1.07.63,5.88,5.88,0,0,0,2,.66,4.16,4.16,0,0,0,1,0l.49-.07a9.6,9.6,0,0,0,1-.27,22.61,22.61,0,0,0,4.24-2.14" transform="translate(0 18.6)"/><path class="cls-34" d="M176.74,149.83l-.33.1c-.94.3-1.68.52-2.23.64s-.57,0-.3-.2a26.1,26.1,0,0,1,5.65-2.94,2.37,2.37,0,0,1,2.09,0,1.06,1.06,0,0,1,.29.27,1.12,1.12,0,0,1,.2.33l.06.18a1.09,1.09,0,0,1,0,.36l0,.18a.93.93,0,0,1-.24.33,3.41,3.41,0,0,1-1.79.57,32.84,32.84,0,0,1-3.35.15" transform="translate(0 18.6)"/><path class="cls-34" d="M160.25,151.41l-.38.05a15.23,15.23,0,0,1-2.64.2,6.6,6.6,0,0,1-2.21-.42,6.18,6.18,0,0,1-3.15-2.92,5.8,5.8,0,0,1-.62-2.17v-.6a9.24,9.24,0,0,1,.12-1.26,28.36,28.36,0,0,1,2.19-6.28,11,11,0,0,0-2.69,5.11,13.6,13.6,0,0,0-.24,1.89,11.81,11.81,0,0,0,0,1.33,9.39,9.39,0,0,0,.18,1.31l.17.61a4.91,4.91,0,0,0,.48,1.12,4,4,0,0,0,2.7,1.9,20.28,20.28,0,0,0,6.08.13" transform="translate(0 18.6)"/><path class="cls-34" d="M184.15,135.68l.21.38a16.58,16.58,0,0,1,1.91,4.79,15.59,15.59,0,0,1,.23,1.64,11,11,0,0,1,0,1.15,8.56,8.56,0,0,1-.31,2.22,6.78,6.78,0,0,1-.38,1l-.26.46-.3.42a5.74,5.74,0,0,1-.73.75,15.7,15.7,0,0,1-4.57,2.4,27.1,27.1,0,0,0,5.23-2.32,5.64,5.64,0,0,0,1.16-.94,3.94,3.94,0,0,0,.84-1.46,5.9,5.9,0,0,0,.25-1.63c0-.57,0-1.14-.05-1.72a3.17,3.17,0,0,0,.08-.72,3,3,0,0,0-.12-.76c0-.5-1.09-2.39-3.22-5.67" transform="translate(0 18.6)"/><path class="cls-34" d="M249.69-18.6h0" transform="translate(0 18.6)"/></g><g id="layer6"><path class="cls-34" d="M231.6,107.88h0v.24h0c.85,16.5,1.7,33,1.06,44.81h0a96.32,96.32,0,0,1-5,25.95l0-.2c-.09,9.86-.17,19.61,1.61,27.21h0a42.76,42.76,0,0,0,8.74,17.23h0a91.4,91.4,0,0,0,9.44,9.95.68.68,0,0,1-.94,1h0A91.46,91.46,0,0,1,237,224h0a44.1,44.1,0,0,1-9-17.76h0c-1.82-7.8-1.73-17.72-1.64-27.53a.63.63,0,0,1,0-.19h0a95,95,0,0,0,4.9-25.62h0c.64-11.69-.21-28.14-1.06-44.67h0l0-.24a.68.68,0,0,1,1.36-.07Z" transform="translate(0 18.6)"/><path class="cls-34" d="M245.79,100.23a5,5,0,0,0-2,0c-2.43.42-5.43,2.39-8.24,4.22a.69.69,0,0,0-.2.94.7.7,0,0,0,.41.29.67.67,0,0,0,.53-.09c2.92-1.9,5.64-3.66,7.73-4a3.47,3.47,0,0,1,1.48,0c1,.25,1.95,1.14,2.5,3.08.78,2.72.78,7.26-1,12.85-.78,2.48-1.92,5.16-3.08,7.91s-2.39,5.64-3.25,8.35c-.19.61-.37,1.22-.52,1.82a44.81,44.81,0,0,0-1.17,7.91,29.37,29.37,0,0,1-.62,4.72,7,7,0,0,1-.33,1c-.93,2.35-3,3.78-5.42,5.11l-1.41.74c0,.52-.07,1-.11,1.51a.54.54,0,0,0,.27-.07l1.13-.58h0c2.77-1.45,5.57-3.14,6.79-6.21a8.43,8.43,0,0,0,.38-1.17,30.29,30.29,0,0,0,.66-4.95,44.29,44.29,0,0,1,1.13-7.68c.15-.57.32-1.16.51-1.75.83-2.64,2-5.43,3.2-8.23s2.32-5.48,3.13-8c1.82-5.76,1.86-10.58,1-13.63C248.64,102.06,247.48,100.65,245.79,100.23Z" transform="translate(0 18.6)"/><path class="cls-34" d="M116.22,118.21h0v0h0c1.85,13.69,3.7,27.35,5.11,37.19h0c1.4,9.87,2.35,15.77,4.64,21.15h0a70.39,70.39,0,0,0,7.62,12.61h0l1.06,1.5h0c2.69,3.84,4.32,6.55,5.94,9.24a.62.62,0,0,1,.09.3h0l.12,1.5h0c.44,5.92.88,11.85,1.25,16.93h0c.4,5.43.76,10.28-.82,13.39h0c-1.62,3.18-5.2,4.45-8.41,5.63a.67.67,0,0,1-.87-.41.69.69,0,0,1,.41-.87h0c3.35-1.22,6.33-2.35,7.66-5h0c1.37-2.69,1.09-7.06.68-12.67h0c-.38-5.16-.81-10.93-1.26-16.93h0l-.11-1.5.1.3c-1.62-2.69-3.23-5.37-5.89-9.16h0l-1.06-1.5h0a71.19,71.19,0,0,1-7.75-12.86h0c-2.38-5.57-3.35-11.66-4.75-21.49h0c-1.4-9.83-3.25-23.53-5.1-37.2h0v0a.68.68,0,1,1,1.35-.19Z" transform="translate(0 18.6)"/><path class="cls-34" d="M114.09,114.83h0l-.08,0c-2.88-.63-6.28-1.42-7.7-.72-1.85.92-.55,3.63.06,5a49.33,49.33,0,0,0,2.74,12c1,2.5,2.3,5.22,3.57,7.79,1,2.06,2,4,2.69,5.74a31.71,31.71,0,0,1,2.29,9.1c-.45,2-.93,4.2-.15,6.37.69,1.93,2.37,3.77,4,5.49h0l.62.63a.7.7,0,0,0,.33.19.67.67,0,0,0,.56-.11l-.24-1.35c-.59-.61-1.16-1.2-1.68-1.78h0a11.66,11.66,0,0,1-2.35-3.53c-.63-1.77-.25-3.62.21-5.7v0a.6.6,0,0,0,0-.23,33,33,0,0,0-2.39-9.55c-.73-1.77-1.72-3.77-2.73-5.82-1.27-2.58-2.58-5.24-3.52-7.68a48.87,48.87,0,0,1-2.68-11.76.48.48,0,0,0,0-.17c-1-2.27-1.15-3.14-.73-3.35.87-.43,3.57.11,6.81.82l.08,0a.68.68,0,0,0,.81-.51A.69.69,0,0,0,114.09,114.83Z" transform="translate(0 18.6)"/><path class="cls-34" d="M133.74,234.88h0v0h0c-1.09,3.93-2.13,7.76-.27,14.13h0c1.89,6.5,6.79,15.6,11.74,24.8l-.08-.12h0c4.31,4.88,8.59,9.71,12,12.78h0a46.32,46.32,0,0,0,5.48,4.21h0c.82.56,1.56,1.06,2.2,1.58h0a16.36,16.36,0,0,1,3.72,4.59.67.67,0,0,1-.22.93.68.68,0,0,1-.93-.23h0a14.93,14.93,0,0,0-3.43-4.23h0c-.58-.48-1.28-.95-2.1-1.52h0a48.24,48.24,0,0,1-5.63-4.33h0c-3.46-3.12-7.79-8-12.09-12.88h0a.44.44,0,0,1-.08-.11h0c-4.93-9.15-9.91-18.4-11.86-25.07h0c-2-6.73-.84-10.86.27-14.87h0v0a.68.68,0,0,1,.84-.47A.67.67,0,0,1,133.74,234.88Z" transform="translate(0 18.6)"/><path class="cls-34" d="M252.61,219.35h0a9.07,9.07,0,0,1-.23,5h0a35.64,35.64,0,0,1-6.29,12.46h0c-3.18,4.22-7.86,8.93-12.65,13.76h0L230.12,254h0c-2,2-3.89,4-5.74,5.93h0c-1.71,1.77-3.34,3.47-4.87,5h0c-1.83,1.86-3.5,3.51-4.94,4.83h0a29.6,29.6,0,0,1-8.42,5.8l-.06,0h0a20.19,20.19,0,0,0-5.11,2.23h0a19.75,19.75,0,0,0-3.88,4h0a.78.78,0,0,1-.2.16h0c-10,5.33-20,10.63-27.71,15.59h0c-7.62,4.92-12.9,9.45-18.45,20.91h0c-5.59,11.53-11.42,30-17.28,48.58a.68.68,0,0,1-.85.45.69.69,0,0,1-.44-.85h0c5.84-18.53,11.71-37.13,17.35-48.77h0c5.68-11.72,11.15-16.43,18.93-21.46h0c7.73-5,17.8-10.33,27.82-15.64h0l-.19.16h0a20.79,20.79,0,0,1,4.16-4.22h0a21.16,21.16,0,0,1,5.45-2.39h0l-.07,0a28.79,28.79,0,0,0,8.1-5.57h0c1.41-1.3,3.06-2.94,4.88-4.79h0c1.53-1.56,3.15-3.24,4.86-5h0c1.85-1.92,3.8-3.95,5.75-5.93h0l3.33-3.37h0c4.82-4.85,9.42-9.49,12.53-13.63h0a34,34,0,0,0,6.05-12h0a7.75,7.75,0,0,0,.23-4.4.67.67,0,0,1,.51-.81A.68.68,0,0,1,252.61,219.35Z" transform="translate(0 18.6)"/><path class="cls-34" d="M232.27,213.71h0c7.26.5,14.63,1,19.16,2.13h0q.58.14,1.11.3h0c4.6,1.39,5.41,3.72,7,8.23h0s.05.15,0,.14h0c1.64,4.62,4.19,11.65,8.25,16.44h0a41.75,41.75,0,0,0,5.28,5h0a33.75,33.75,0,0,1,4.14,3.85h0A8.91,8.91,0,0,1,279.1,253h0c1.35,4.62-2.18,10.69-6.45,16.07h0c-4.34,5.48-9.74,10.58-15.09,15.65l-.15.11h0l-.1.05h0c-5.68,2.94-11.5,5.94-20.27,5.92h0c-7,0-15.95-2-22.3-3.37h0c-1.58-.34-3-.65-4.18-.89h0c-6.15-1.23-6.44-.58-6.79-.28l.17-.21-5.14,10.52a.68.68,0,0,1-.58.38h0c-8.12.29-16.14.59-22.62,2.29h0c-6.45,1.69-11.41,4.78-16.45,7.93a.69.69,0,0,1-.94-.22.68.68,0,0,1,.22-.93h0c5-3.14,10.15-6.34,16.83-8.09h0c6.65-1.75,14.84-2,22.91-2.34h0l-.59.38,5.14-10.52a.65.65,0,0,1,.16-.21h0c.91-.8,1.88-1.24,8,0h0l4.2.9h0c6.39,1.4,15.16,3.32,22,3.33h0c8.42,0,14-2.83,19.65-5.77h0l.09-.05-.15.11c5.37-5.08,10.69-10.11,15-15.5h0c4.35-5.48,7.33-11,6.21-14.85h0a7.67,7.67,0,0,0-1.56-2.71h0a33.18,33.18,0,0,0-4-3.69h0a43.29,43.29,0,0,1-5.45-5.15h0c-4.25-5-6.86-12.29-8.48-16.87h0l-.05-.13h0c-1.6-4.5-2.22-6.21-6.14-7.4h0c-.32-.09-.66-.19-1-.28h0c-4.39-1.07-11.61-1.58-18.94-2.09a.69.69,0,0,1-.63-.72A.68.68,0,0,1,232.27,213.71Z" transform="translate(0 18.6)"/><path class="cls-34" d="M141.17,213.75h0c-4.58.67-8.89,1.32-12.27,4.87h0c-2.41,2.54-4.39,6.59-6.11,10.13h0c-.71,1.47-1.39,2.86-2,4h0a17.05,17.05,0,0,1-3.45,4.38h0a8.93,8.93,0,0,0-1.42,1.57h0a16.39,16.39,0,0,0-1.19,2.41h0a23.26,23.26,0,0,1-1.82,3.58h0c-.23.33-.47.66-.73,1h0a23,23,0,0,1-2.76,2.6h0a31.13,31.13,0,0,0-4.11,4h0c-.33.41-.67.84-1,1.3h0a50.11,50.11,0,0,0-7,16.12h0c-1.29,5.5-1.08,10-.87,14.53l-.79-.64a37.68,37.68,0,0,1,9.31-.7h0c.94.05,2,.14,3,.23h0c1.14.1,2.32.21,3.52.27h0a25.14,25.14,0,0,0,6.59-.35h0a26.35,26.35,0,0,0,7.46-3.3h0c1-.6,2-1.17,2.94-1.58h0a10.51,10.51,0,0,1,6.94-.59.72.72,0,0,1,.48.35.74.74,0,0,1,0,.6h0l-2.42,5.34-.29-.87h0a125.41,125.41,0,0,0,14.92,7.33h0c3.09,1.18,6.25,2.09,9,2.88h0c1.72.49,3.29.94,4.54,1.38h0a14,14,0,0,1,5.67,3.28l0,0h0a.68.68,0,1,1-1,.91h0l0,.05a12.63,12.63,0,0,0-5.21-3h0c-1.21-.42-2.73-.86-4.46-1.36h0c-2.73-.78-5.94-1.71-9.1-2.92h0a125.9,125.9,0,0,1-15.08-7.4h0a.68.68,0,0,1-.29-.88h0l2.41-5.34.5.95a9.18,9.18,0,0,0-6.14.48h0c-.84.38-1.77.91-2.82,1.52h0a27.48,27.48,0,0,1-7.85,3.45h0a26.52,26.52,0,0,1-7,.39h0c-1.22-.07-2.42-.18-3.56-.28h0c-1.06-.09-2-.18-3-.23h0a36.25,36.25,0,0,0-9,.69.67.67,0,0,1-.79-.64h0c-.21-4.55-.44-9.2.9-14.9h0a51.42,51.42,0,0,1,7.23-16.6h0c.35-.49.71-.95,1.06-1.38h0a33.6,33.6,0,0,1,4.28-4.14h0a20.63,20.63,0,0,0,2.59-2.43h0a9.13,9.13,0,0,0,.64-.86h0a22.18,22.18,0,0,0,1.7-3.37h0a18.28,18.28,0,0,1,1.31-2.62h0a10.46,10.46,0,0,1,1.61-1.8h0a15.85,15.85,0,0,0,3.21-4.07h0c.61-1.06,1.26-2.41,2-3.89h0c1.69-3.48,3.75-7.74,6.34-10.47h0c3.75-3.94,8.53-4.62,13-5.28a.68.68,0,0,1,.77.57A.67.67,0,0,1,141.17,213.75Z" transform="translate(0 18.6)"/><path class="cls-34" d="M278.59,250.87h0c19.76,10.71,39.55,21.44,51.58,29.23h0c12,7.81,16.35,12.71,19.48,18.14h0c3.09,5.38,5,11.23,6.9,17l0,0,0,.15h0c3,12.27,6.08,24.59,7.45,38.28h0c1.37,13.74,1,28.84.72,43.88a.67.67,0,0,1-.7.66.67.67,0,0,1-.66-.69h0c.32-15.06.65-30.07-.71-43.71h0c-1.35-13.58-4.37-25.82-7.41-38.1h0l0-.14,0,.05c-1.9-5.8-3.78-11.52-6.8-16.75h0c-3-5.19-7.1-9.94-19-17.68h0c-12-7.76-31.7-18.46-51.49-29.18a.68.68,0,1,1,.65-1.19Z" transform="translate(0 18.6)"/><path class="cls-34" d="M111.49,245.92h0c-9.12,3.46-18.2,6.9-27.13,11.24h0c-8.93,4.33-17.71,9.56-29.71,17.38h0c-12,7.83-27,18.18-36.42,36h0c-9.4,17.89-13.13,43.36-16.88,69a.68.68,0,0,1-.77.57.67.67,0,0,1-.57-.77H0c3.74-25.56,7.49-51.29,17-69.43h0c9.56-18.18,24.88-28.68,36.88-36.52h0c12-7.84,20.86-13.1,29.86-17.47h0c9-4.37,18.13-7.83,27.24-11.28a.67.67,0,1,1,.48,1.26Z" transform="translate(0 18.6)"/></g><g id="layer7"><path class="cls-34" d="M117.52,129.86l-.54-1.54q-3.75-10.8-4.52-15.5-.75-2.31-2-20.55l-2.83-16.15a28.49,28.49,0,0,1-.2-5.48,32.56,32.56,0,0,1,1.27-6.77,16.11,16.11,0,0,1,.08-4q.33-2.73,3.62-6.53,2.28-2.76,11.62-10.68A35.93,35.93,0,0,1,135.35,29.9q5.58-3.37,16.26-6.6,12.87-3.09,19.66-4.28,15.16-3.06,27.54-.55,11.12,1.82,25.9,14l9.68,8.36L231,39.64q6.9,5.94,9.51,12.67,4.53,7.24-2.22,51.87-5.2,3.38-7.4,14.4-4.22-29.51-5.8-47.43a36,36,0,0,0-1.45-6.53q-4.89-13-17.76-23.44a14.27,14.27,0,0,0-8.58-2.81l-15,1.68-27.5,1Q137.9,42.53,132,47a24.22,24.22,0,0,0-8.47,9.71q-8.09,17.88-8.19,22.9a55.26,55.26,0,0,0-.46,10.77q-.27,1.23,2.78,28.09a63.84,63.84,0,0,1-.11,11.37" transform="translate(0 18.6)"/><path class="cls-42" d="M203.85,20.29a51.58,51.58,0,0,0-14.49-1.14c-3,.16-5.94.4-8.91.7a38.4,38.4,0,0,1,5.55.95,50.89,50.89,0,0,1,5.78,1.82q-14.21-2.89-21.52-1.48-5.08.63-13.26,2.49a40.06,40.06,0,0,1,17.73.7l.58.14a36.88,36.88,0,0,0-12.15-1,46.09,46.09,0,0,0-10.14,3q-8.76,1.62-11.3,2.77Q133,32.33,126.28,44l-.84,1.29q6.34-7.2,11.28-9.49,4.62-2.52,17.38-4.93h0a66.41,66.41,0,0,0-14,9.3Q153.2,35.2,159.48,34a104.39,104.39,0,0,1,18.3-2h0q-9,.91-20.34,5.88a49.61,49.61,0,0,1,12-2.08q-.06-.21,16.5.15,15.06-.49,15.92-.29a.06.06,0,0,1,0,0,25.08,25.08,0,0,1,5.37.77,48.63,48.63,0,0,1,10.33,4,12.29,12.29,0,0,0-4,0q-1.71.22-6.83,1.46l-1.26.3c.62.05,1.21.09,1.79.15l-.07-.06h0l.07.06a50.69,50.69,0,0,1,7.44,1.14,16.88,16.88,0,0,1,4.52,1.7q4.08,1.94,10.08,9.72a29.17,29.17,0,0,0-10.95-5.26c-.44-.13-.94-.26-1.51-.4-.9-.23-2-.46-3.2-.71a50.59,50.59,0,0,1,9.9,16A36,36,0,0,1,225,71.15q1.59,17.92,5.8,47.43,2.19-11,7.4-14.4c.2-1.34.4-2.66.58-4l-3.69-16.46q-.25-13.3-2.24-20.92-2-8-10.47-17.82h0q12.8,11.67,16.66,18.2a46.2,46.2,0,0,1,3.07,5.85q.59-13.12-1.7-16.77a26.35,26.35,0,0,0-1.8-3.71A16.24,16.24,0,0,0,236.1,46q-3.27-4-27.46-15.28,3.83.72,7.23,1.56a74.33,74.33,0,0,1,14.22,4.83l-5.38-4.64,5.38,4.64h0c1.14.55,2.2,1.11,3.18,1.69Q220.81,28,211.65,23.31h0c1.2.67,2.42,1.41,3.66,2.21h0c-1.26-.81-2.49-1.55-3.7-2.23-.79-.41-1.56-.78-2.32-1.12A29.85,29.85,0,0,0,203.85,20.29Z" transform="translate(0 18.6)"/><path class="cls-42" d="M156.86,23.66h0c-.42.09-.83.18-1.25.29l1.26-.29Z" transform="translate(0 18.6)"/><path class="cls-42" d="M120.23,45.9a82.16,82.16,0,0,0-7.88,7.47A15.47,15.47,0,0,0,108.91,59a34.72,34.72,0,0,1,7.29-3.61h0q-4.74,4.28-5.75,6.53a12.45,12.45,0,0,0-1.25,6.66,56.56,56.56,0,0,0,.63,5.64A8.3,8.3,0,0,1,111,69.47c.64-1.07,2.35-2.73,5.15-5h0a43.66,43.66,0,0,0-3.4,8.39,23.44,23.44,0,0,0-.71,4.14,23.94,23.94,0,0,0,0,3.07q0,4.36,3,13.86a24.64,24.64,0,0,1-.18-3.57,55.26,55.26,0,0,1,.46-10.77q.1-4.68,7.12-20.52h0l-3.81,1.53L123.55,52q-1.47-4.74-3.31-6.08Z" transform="translate(0 18.6)"/><path class="cls-43" d="M189.59,26.57,188,26.22a66,66,0,0,0-9.73-1.53,29,29,0,0,0-3.23,0l-1.61.12a22.24,22.24,0,0,0-3.21.56,24.33,24.33,0,0,0-3.2,1,35.31,35.31,0,0,0-4.78,2.31,110.81,110.81,0,0,0-11.09,7.47q17.55-6.4,23.74-7.85a57.24,57.24,0,0,1,14.73-1.74" transform="translate(0 18.6)"/><path class="cls-43" d="M208,33.91l-.91-.43q-2.7-1.32-5.48-2.43a38.52,38.52,0,0,0-3.75-1.28,25.45,25.45,0,0,0-6.9-1,26.21,26.21,0,0,0-3.15.22l-1.62.25c-1.09.19-2.2.44-3.31.73a117.19,117.19,0,0,0-12,4.08q16-1.12,22-1.1a120.25,120.25,0,0,1,15.17.95" transform="translate(0 18.6)"/><path class="cls-43" d="M239.64,49.45l-.94-.82a43.89,43.89,0,0,0-5.87-4.52,22.7,22.7,0,0,0-2.16-1.19l-1.15-.5L228.33,42l-1.23-.35-.22,0-1.32-.26-1.38-.18-1.42-.1c-1,0-2,0-3,0a103.47,103.47,0,0,0-11.21,1.2l31.06,7.21" transform="translate(0 18.6)"/></g></svg>